<svg width="24" height="24" viewBox="0 0 24 24" fill="none" xmlns="http://www.w3.org/2000/svg">
<g clip-path="url(#clip0_2033_173)">
<path d="M21 7.5V12.63C20.11 11.92 18.98 11.5 17.75 11.5C16.52 11.5 15.37 11.93 14.47 12.66C13.26 13.61 12.5 15.1 12.5 16.75C12.5 17.73 12.78 18.67 13.26 19.45C13.63 20.06 14.11 20.59 14.68 21H8C4.5 21 3 19 3 16V7.5C3 4.5 4.5 2.5 8 2.5H16C19.5 2.5 21 4.5 21 7.5Z" stroke="currentColor" stroke-width="1.5" stroke-miterlimit="10" stroke-linecap="round" stroke-linejoin="round"/>
<path d="M7 10H13" stroke="currentColor" stroke-width="1.5" stroke-miterlimit="10" stroke-linecap="round" stroke-linejoin="round"/>
<path d="M7 15H9.62" stroke="currentColor" stroke-width="1.5" stroke-miterlimit="10" stroke-linecap="round" stroke-linejoin="round"/>
<path d="M23 16.75C23 17.73 22.72 18.67 22.24 19.45C21.96 19.93 21.61 20.35 21.2 20.69C20.28 21.51 19.08 22 17.75 22C16.6 22 15.54 21.63 14.68 21C14.11 20.59 13.63 20.06 13.26 19.45C12.78 18.67 12.5 17.73 12.5 16.75C12.5 15.1 13.26 13.61 14.47 12.66C15.37 11.93 16.52 11.5 17.75 11.5C18.98 11.5 20.11 11.92 21 12.63C22.22 13.59 23 15.08 23 16.75Z" stroke="currentColor" stroke-width="1.5" stroke-miterlimit="10" stroke-linecap="round" stroke-linejoin="round"/>
<path d="M15.0833 16.5834H20.0833" stroke="currentColor" stroke-width="1.5" stroke-linecap="round"/>
<path d="M17.5833 19.0834V14.0834" stroke="currentColor" stroke-width="1.5" stroke-linecap="round"/>
</g>
<defs>
<clipPath id="clip0_2033_173">
<rect width="24" height="24" fill="white"/>
</clipPath>
</defs>
</svg>
