<svg width="683" height="683" viewBox="0 0 683 683" fill="none" xmlns="http://www.w3.org/2000/svg">
    <path
        d="M168.267 86.8C130.267 93.3333 99.0667 121.867 88.4 160C86.2667 167.467 86 174 86 208.4V248.267L90.4 252.133C97.3333 258.4 108.667 256.4 111.733 248.4C112.667 246.133 113.467 230.4 113.733 208.667C114.133 176.267 114.533 171.867 117.067 163.867C124.267 142.133 142.267 124.133 164 117.067C171.733 114.533 176.667 114.267 210 113.6C250.533 112.933 251.6 112.8 254.667 105.333C256.933 100 255.333 93.2 251.2 89.2L247.733 86L211.6 85.7333C191.6 85.7333 172.133 86.1333 168.267 86.8Z"
        fill="currentColor" />
    <path
        d="M407.2 86.5333C398.4 90.2666 395.867 102.667 402.4 109.333L406.133 113.067L444.133 113.6C480.533 114.133 482.4 114.267 491.467 117.6C513.467 125.333 528 140 537.067 163.2C538.8 167.6 539.333 176.667 539.867 207.6C540.667 244.4 540.8 246.667 543.467 250.267C549.733 258.8 563.467 256.933 567.6 247.067C569.333 242.8 569.467 236.533 568.933 206C568.267 164.667 567.333 159.733 557.733 140C552.533 129.333 549.6 125.333 539.467 115.2C529.2 104.933 525.333 102.133 514.667 96.9333C493.867 86.6666 491.2 86.2666 448 85.7333C427.067 85.6 408.667 85.8666 407.2 86.5333Z"
        fill="currentColor" />
    <path
        d="M232.133 231.867L228 235.733V269.733V303.733L231.333 307.733C235.6 312.8 240.933 314.133 247.067 311.467C255.467 308 256 305.467 256 269.2V237.067L251.467 232.533C245.333 226.4 238.267 226.267 232.133 231.867Z"
        fill="currentColor" />
    <path
        d="M317.467 231.867L313.333 235.733V281.867C313.333 318.8 312.933 328.933 311.467 332.667C309.467 337.333 303.6 341.333 298.667 341.333C293.733 341.333 287.867 345.333 285.867 350C283.333 356.133 284.8 362 289.733 366.133C293.6 369.333 294.667 369.6 302.667 369.067C317.467 368 330.267 359.2 336.933 345.6L340.667 338L341.067 287.6L341.467 237.2L336.8 232.533C330.667 226.4 323.6 226.133 317.467 231.867Z"
        fill="currentColor" />
    <path
        d="M402.8 231.867L398.667 235.733V269.733V303.733L402 307.733C406.267 312.8 411.6 314.133 417.733 311.467C426.133 308 426.667 305.467 426.667 269.2V237.067L422.133 232.533C416 226.4 408.933 226.267 402.8 231.867Z"
        fill="currentColor" />
    <path
        d="M89.8666 403.2L85.3333 407.733V443.2C85.3333 480.8 86.5333 491.333 92.1333 505.867C99.9999 525.867 119.2 547.067 138.267 557.067C157.733 567.2 163.867 568.267 204.533 568.933C245.067 569.733 249.2 569.067 253.333 562.267C256.667 556.8 256.667 552.533 253.333 547.067C251.6 544.267 249.2 542.4 245.733 541.467C242.8 540.667 226.533 540 207.333 540C183.867 540 172 539.467 167.333 538.133C144.133 532 124.533 513.467 117.067 490.8C114.533 482.933 114.133 477.867 113.467 443.6L112.667 405.067L108.667 401.867C102.533 396.933 95.5999 397.467 89.8666 403.2Z"
        fill="currentColor" />
    <path
        d="M247.6 401.333C242.533 405.333 240.667 412 243.2 417.733C247.467 428.133 275.067 445.733 296 451.6C302.933 453.467 309.467 454 328 454C350.667 453.867 351.733 453.733 364 449.6C377.6 445.067 388.8 438.933 400.8 429.333C409.333 422.533 412 418.133 412 411.333C412 401.333 399.2 395.067 390.667 400.933C388.8 402.133 384.667 405.467 381.467 408.267C368.267 419.733 347.867 426.667 327.333 426.667C305.733 426.667 286.8 419.867 270.133 406.267C259.733 397.733 253.867 396.4 247.6 401.333Z"
        fill="currentColor" />
    <path
        d="M546.8 400.8C540.667 405.2 540 409.467 540 445.733C540 471.733 539.467 481.2 538 487.333C531.867 510.8 513.2 530.133 489.467 537.333C482 539.733 477.067 540 447.467 540C428.667 540 411.867 540.667 409.067 541.333C398.533 544.267 395.2 556.133 402.533 564.267L406.4 568.667L439.867 569.067C476.667 569.467 491.067 568 505.6 562.133C529.6 552.4 549.467 533.333 560 510.133C567.333 494 568.267 487.733 568.933 449.467C569.733 411.2 569.067 406.133 563.067 401.467C558.933 398.133 551.2 397.867 546.8 400.8Z"
        fill="currentColor" />
</svg>