<svg width="1303" height="669" viewBox="0 0 1303 669" fill="none" xmlns="http://www.w3.org/2000/svg">
<path d="M745.191 16.4072H759.191L770.191 20.4072L778.191 26.4072L820.191 62.4072L831.191 71.4072L859.191 95.4072L864.191 99.4072L867.191 100.407L996.191 101.407V134.407L995.191 135.407H907.191L912.191 140.407L920.191 146.407L996.191 147.407L997.191 212.407L1009.19 223.407L1020.19 232.407L1030.19 241.407L1041.19 250.407L1051.19 259.407L1057.19 264.407L1058.19 266.407V496.407L1068.19 493.407V490.407L1083.19 485.407H1085.19L1084.19 472.407L1076.19 466.407L1071.19 458.407L1069.19 451.407V442.407L1072.19 433.407L1080.19 424.407L1082.19 413.407L1088.19 404.407V402.407L1081.19 394.407L1074.19 379.407L1073.19 371.407L1076.19 363.407L1083.19 357.407L1091.19 354.407H1098.19L1105.19 357.407L1110.19 363.407L1114.19 371.407L1119.19 369.407H1133.19L1141.19 374.407L1146.19 380.407L1149.19 389.407L1148.19 401.407L1156.19 407.407L1160.19 413.407L1162.19 419.407V426.407L1159.19 435.407L1156.19 439.407V448.407L1169.19 447.407L1173.19 449.407L1170.19 475.407V486.407L1172.19 503.407L1179.19 524.407L1183.19 537.407V554.407L1179.19 563.407L1172.19 569.407H1127.19L1125.19 574.407L1122.19 577.407V589.407L1123.19 590.407V614.407L1131.19 618.407L1151.19 627.407L1162.19 633.407L1164.19 638.407H1159.19L1161.19 644.407L1159.19 646.407L1154.19 645.407L1155.19 639.407L1119.19 626.407L1110.19 628.407L1080.19 639.407L1082.19 644.407L1080.19 646.407L1075.19 645.407V638.407H1071.19L1073.19 633.407L1094.19 622.407L1111.19 615.407L1112.19 590.407L1113.19 589.407L1114.19 576.407L1110.19 574.407L1108.19 570.407L1063.19 569.407L1062.19 564.407L1063.19 552.407L1067.19 546.407L1058.19 544.407V616.407L1036.19 617.407L1034.19 624.407V636.407L1032.19 641.407L1030.19 643.407L1024.19 645.407L1016.19 650.407L1013.19 651.407H1002.19L1004.19 647.407L1017.19 638.407L1022.19 634.407V621.407L1021.19 617.407H983.191L979.191 618.407L972.191 633.407L967.191 643.407H964.191L963.191 640.407H941.191L931.191 638.407V636.407L942.191 634.407L960.191 631.407L965.191 616.407H447.191L446.191 370.407L437.191 360.407L430.191 352.407L421.191 342.407L412.191 331.407L405.191 323.407L404.191 359.407V389.407L419.191 501.407L430.191 582.407L433.191 603.407L432.191 608.407H429.191L434.191 613.407L450.191 619.407L452.191 622.407H417.191L416.191 615.407H414.191L408.191 595.407L398.191 555.407L393.191 525.407V510.407L384.191 491.407L376.191 467.407L373.191 456.407L371.191 463.407L366.191 496.407V507.407L369.191 539.407L368.191 573.407L365.191 609.407L364.191 614.407L363.191 618.407L356.191 622.407H341.191L340.191 618.407L348.191 612.407V600.407L338.191 487.407L336.191 453.407L335.191 402.407L323.191 394.407L313.191 385.407L308.191 382.407V380.407L305.191 381.407L297.191 375.407L294.191 371.407L293.191 367.407V359.407L296.191 347.407L306.191 323.407L314.191 309.407L322.191 298.407L329.191 291.407L348.191 282.407L352.191 276.407L354.191 275.407L353.191 257.407L349.191 247.407L350.191 240.407L349.191 235.407L355.191 228.407L360.191 220.407L362.191 216.407L365.191 214.407L373.191 215.407L380.191 221.407L382.191 227.407V259.407L381.191 266.407L378.191 270.407L379.191 277.407L381.191 279.407L397.191 283.407L410.191 292.407L424.191 304.407L433.191 313.407L440.191 321.407L446.191 328.407L447.191 264.407L462.191 251.407L476.191 239.407L487.191 230.407L497.191 221.407L501.191 218.407L502.191 147.407L585.191 146.407L597.191 136.407L501.191 135.407V101.407L637.191 100.407L643.191 97.4072L653.191 88.4072L664.191 79.4072L679.191 66.4072L692.191 55.4072L706.191 43.4072L717.191 34.4072L727.191 25.4072L738.191 18.4072L745.191 16.4072ZM332.191 333.407L322.191 352.407L317.191 363.407L319.191 368.407L329.191 386.407L335.191 395.407H336.191L337.191 379.407H335.191L336.191 373.407V358.407L334.191 337.407L332.191 333.407ZM1067.19 501.407L1064.19 504.407L1068.19 503.407L1069.19 501.407H1067.19ZM1058.19 502.407V504.407L1062.19 502.407H1058.19ZM1072.19 501.407L1070.19 504.407H1073.19L1074.19 506.407H1096.19V501.407L1082.19 503.407H1076.19L1075.19 501.407H1072.19ZM1163.19 510.407L1164.19 517.407L1160.19 518.407L1158.19 531.407L1154.19 540.407L1152.19 545.407L1165.19 546.407L1169.19 548.407L1171.19 552.407L1172.19 560.407H1174.19L1177.19 553.407V537.407L1171.19 519.407L1167.19 510.407H1163.19Z" fill="#F9C34D"/>
<path d="M745.191 16.4072H759.191L770.191 20.4072L778.191 26.4072L820.191 62.4072L831.191 71.4072L859.191 95.4072L864.191 99.4072L867.191 100.407L996.191 101.407V134.407L995.191 135.407H907.191L912.191 140.407L920.191 146.407L996.191 147.407V322.407L981.191 336.407L971.191 345.407L958.191 357.407H546.191L537.191 348.407L529.191 341.407L513.191 326.407L502.191 316.407V147.407L585.191 146.407L597.191 136.407L501.191 135.407V101.407L637.191 100.407L643.191 97.4072L653.191 88.4072L664.191 79.4072L679.191 66.4072L692.191 55.4072L706.191 43.4072L717.191 34.4072L727.191 25.4072L738.191 18.4072L745.191 16.4072Z" fill="#FDFDFD"/>
<path d="M208.191 175.407H213.191L217.191 181.407L237.191 238.407L253.191 283.407V288.407L249.191 291.407L232.191 297.407H230.191L236.191 314.407V316.407L212.191 313.407L197.191 311.407L189.191 312.407L170.191 319.407L168.191 333.407L165.191 348.407L163.191 362.407L158.191 379.407L154.191 387.407L150.191 385.407L142.191 377.407L135.191 366.407V364.407H133.191L132.191 372.407L128.191 386.407L129.191 391.407L132.191 399.407L171.191 410.407L173.191 413.407L171.191 423.407L159.191 466.407L157.191 470.407H150.191L143.191 468.407L144.191 470.407L146.191 499.407V534.407L149.191 565.407L151.191 598.407L154.191 614.407L155.191 616.407L163.191 615.407L175.191 613.407H181.191L180.191 616.407L155.191 627.407H151.191L148.191 619.407L144.191 595.407L131.191 547.407L128.191 530.407L127.191 518.407L115.191 524.407L105.191 531.407L96.1914 535.407H92.1914L89.1914 544.407L76.1914 575.407L64.1914 601.407L63.1914 604.407L61.1914 622.407L57.1914 632.407L56.1914 634.407H53.1914L52.1914 632.407V617.407L55.1914 606.407L61.1914 595.407L70.1914 555.407L76.1914 531.407L79.1914 517.407L82.1914 486.407L88.1914 452.407H81.1914L79.1914 453.407L77.1914 450.407L12.1914 432.407L8.19141 430.407V423.407L22.1914 373.407L24.1914 371.407L34.1914 372.407L47.1914 376.407L51.1914 359.407L54.1914 360.407L63.1914 371.407L74.1914 383.407L85.1914 386.407L86.1914 359.407L88.1914 342.407L91.1914 336.407L93.1914 334.407L88.1914 326.407V323.407L98.1914 319.407L104.191 312.407L105.191 309.407L106.191 297.407L110.191 289.407L115.191 285.407L118.191 284.407H130.191L136.191 287.407L141.191 293.407L142.191 296.407V323.407L138.191 331.407L133.191 334.407L138.191 337.407L144.191 353.407L150.191 372.407L159.191 346.407L163.191 336.407V326.407L161.191 322.407L156.191 321.407L151.191 309.407L117.191 213.407L118.191 208.407L123.191 205.407L171.191 188.407L208.191 175.407ZM96.1914 368.407L93.1914 389.407L104.191 392.407L102.191 383.407L97.1914 368.407H96.1914Z" fill="#D2E6EC"/>
<path d="M745.191 16.4072H759.191L770.191 20.4072L778.191 26.4072L820.191 62.4072L831.191 71.4072L859.191 95.4072L864.191 99.4072L867.191 100.407L996.191 101.407V134.407L995.191 135.407H907.191L912.191 140.407L919.191 146.407V147.407H585.191L590.191 142.407L597.191 136.407L501.191 135.407V101.407L637.191 100.407L643.191 97.4072L653.191 88.4072L664.191 79.4072L679.191 66.4072L692.191 55.4072L706.191 43.4072L717.191 34.4072L727.191 25.4072L738.191 18.4072L745.191 16.4072Z" fill="#566E81"/>
<path d="M548.191 357.407H956.191V359.407L948.191 366.407L940.191 374.407L932.191 381.407L915.191 397.407L903.191 408.407L888.191 422.407L875.191 434.407L860.191 448.407L852.191 455.407H653.191L642.191 446.407L630.191 434.407L622.191 427.407L591.191 398.407L579.191 387.407L564.191 373.407L551.191 361.407L548.191 357.407Z" fill="#566E81"/>
<path d="M1091.19 354.407H1098.19L1105.19 357.407L1110.19 363.407L1114.19 371.407L1119.19 369.407H1133.19L1141.19 374.407L1146.19 380.407L1149.19 389.407L1148.19 401.407L1156.19 407.407L1160.19 413.407L1162.19 419.407V426.407L1159.19 435.407L1156.19 439.407V448.407L1169.19 447.407L1173.19 449.407L1170.19 475.407V486.407L1172.19 503.407L1179.19 524.407L1183.19 537.407V554.407L1179.19 563.407L1172.19 569.407H1127.19L1125.19 574.407L1122.19 577.407V589.407L1123.19 590.407V614.407L1131.19 618.407L1151.19 627.407L1162.19 633.407L1164.19 638.407H1159.19L1161.19 644.407L1159.19 646.407L1154.19 645.407L1155.19 639.407L1119.19 626.407L1110.19 628.407L1080.19 639.407L1082.19 644.407L1080.19 646.407L1075.19 645.407V638.407H1071.19L1073.19 633.407L1094.19 622.407L1111.19 615.407L1112.19 590.407L1113.19 589.407L1114.19 576.407L1110.19 574.407L1108.19 570.407L1063.19 569.407L1062.19 564.407L1063.19 552.407L1067.19 546.407L1058.19 544.407V616.407L1036.19 617.407L1034.19 624.407V636.407L1032.19 641.407L1030.19 643.407L1024.19 645.407L1016.19 650.407L1013.19 651.407H1002.19L1004.19 647.407L1017.19 638.407L1022.19 634.407V621.407L1021.19 617.407H983.191L980.191 618.407L966.191 612.407L969.191 602.407L995.191 532.407L1003.19 512.407L1009.19 508.407L1013.19 507.407L1039.19 506.407L1110.19 505.407L1109.19 501.407V491.407H1118.19L1116.19 484.407H1109.19L1105.19 463.407L1102.19 445.407V431.407L1105.19 415.407V410.407L1102.19 408.407H1100.19L1092.19 420.407L1090.19 437.407L1086.19 472.407L1081.19 470.407L1076.19 466.407L1071.19 458.407L1069.19 451.407V442.407L1072.19 433.407L1080.19 424.407L1082.19 413.407L1088.19 404.407V402.407L1081.19 394.407L1074.19 379.407L1073.19 371.407L1076.19 363.407L1083.19 357.407L1091.19 354.407ZM1163.19 510.407L1164.19 517.407L1160.19 518.407L1158.19 531.407L1154.19 540.407L1152.19 545.407L1165.19 546.407L1169.19 548.407L1171.19 552.407L1172.19 560.407H1174.19L1177.19 553.407V537.407L1171.19 519.407L1167.19 510.407H1163.19Z" fill="#254763"/>
<path d="M887.191 480.406L947.191 481.406L950.191 485.406V500.406H971.191L965.191 507.406L951.191 521.406L950.191 565.406L946.191 569.406H733.191L730.191 566.406V484.406L733.191 481.406L887.191 480.406Z" fill="#254764"/>
<path d="M1199.19 155.407H1217.19L1231.19 158.407L1243.19 163.407L1253.19 169.407L1264.19 178.407L1272.19 188.407L1278.19 198.407L1283.19 212.407L1285.19 221.407V243.407L1281.19 259.407L1273.19 275.407L1266.19 284.407L1257.19 293.407L1246.19 300.407L1233.19 306.407L1220.19 309.407L1204.19 310.407L1190.19 308.407L1178.19 304.407L1166.19 298.407L1163.19 297.407L1145.19 308.407L1133.19 316.407L1131.19 315.407L1143.19 292.407L1148.19 282.407L1141.19 272.407L1135.19 260.407L1131.19 245.407L1130.19 229.407L1132.19 215.407L1137.19 200.407L1144.19 188.407L1153.19 177.407L1164.19 168.407L1174.19 162.407L1188.19 157.407L1199.19 155.407Z" fill="#254763"/>
<path d="M337.191 379.407H365.191L400.191 380.407L403.191 381.407L416.191 479.407L429.191 575.407L433.191 603.407L432.191 608.407H429.191L434.191 613.407L450.191 619.407L452.191 622.407H417.191L416.191 615.407H414.191L408.191 595.407L398.191 555.407L393.191 525.407V510.407L384.191 491.407L376.191 467.407L373.191 456.407L371.191 463.407L366.191 496.407V507.407L369.191 539.407L368.191 573.407L365.191 609.407L364.191 614.407L363.191 618.407L356.191 622.407H341.191L340.191 618.407L348.191 612.407V600.407L338.191 487.407L336.191 453.407V385.407L337.191 379.407Z" fill="#254764"/>
<path d="M365.191 214.407L373.191 215.407L380.191 221.407L382.191 227.407V259.407L381.191 266.407L378.191 270.407L379.191 277.407L381.191 279.407L397.191 283.407L410.191 292.407L424.191 304.407L433.191 313.407L440.191 321.407L451.191 334.407L463.191 350.407L468.191 361.407L474.191 377.407L477.191 396.407V401.407L481.191 400.407L492.191 404.407L498.191 408.407L495.191 409.407L485.191 406.407H481.191V408.407H487.191V410.407H477.191L464.191 392.407L455.191 380.407L449.191 373.407L444.191 368.407L435.191 357.407L428.191 350.407L419.191 339.407L407.191 326.407L405.191 323.407L403.191 381.407L335.191 379.407V358.407L333.191 337.407L332.191 334.407L319.191 360.407L318.191 365.407L330.191 386.407L336.191 395.407V402.407L327.191 397.407L317.191 389.407L311.191 384.407L308.191 382.407V380.407L305.191 381.407L297.191 375.407L294.191 371.407L293.191 367.407V359.407L296.191 347.407L306.191 323.407L314.191 309.407L322.191 298.407L329.191 291.407L348.191 282.407L352.191 276.407L354.191 275.407L353.191 257.407L349.191 247.407L350.191 240.407L349.191 235.407L355.191 228.407L360.191 220.407L362.191 216.407L365.191 214.407Z" fill="#D2E7ED"/>
<path d="M208.191 175.407H213.191L217.191 181.407L237.191 238.407L253.191 283.407V288.407L249.191 291.407L232.191 297.407H230.191L236.191 314.407V316.407L212.191 313.407L197.191 311.407L189.191 312.407L165.191 321.407L157.191 322.407L154.191 317.407L141.191 281.407L122.191 227.407L117.191 213.407L118.191 208.407L123.191 205.407L171.191 188.407L208.191 175.407Z" fill="#274865"/>
<path d="M1091.19 354.407H1098.19L1105.19 357.407L1110.19 363.407L1114.19 371.407L1119.19 369.407H1133.19L1141.19 374.407L1146.19 380.407L1149.19 389.407L1148.19 401.407L1156.19 407.407L1160.19 413.407L1162.19 419.407V426.407L1159.19 435.407L1156.19 439.407V491.407L1163.19 510.407L1164.19 517.407L1160.19 518.407L1155.19 517.407H1138.19L1122.19 519.407L1120.19 506.407V504.407L1118.19 505.407H1110.19L1109.19 501.407V491.407H1118.19L1116.19 484.407H1109.19L1105.19 463.407L1102.19 445.407V431.407L1105.19 415.407V410.407L1102.19 408.407H1100.19L1092.19 420.407L1090.19 437.407L1086.19 472.407L1081.19 470.407L1076.19 466.407L1071.19 458.407L1069.19 451.407V442.407L1072.19 433.407L1080.19 424.407L1082.19 413.407L1088.19 404.407V402.407L1081.19 394.407L1074.19 379.407L1073.19 371.407L1076.19 363.407L1083.19 357.407L1091.19 354.407Z" fill="#D2E7ED"/>
<path d="M296.191 16.4072H308.191L321.191 19.4072L332.191 25.4072L342.191 34.4072L348.191 42.4072L353.191 53.4072L355.191 61.4072V78.4072L351.191 91.4072L346.191 100.407L337.191 110.407L327.191 117.407L317.191 121.407L307.191 123.407H296.191L283.191 120.407L270.191 113.407L262.191 106.407L255.191 96.4072L250.191 84.4072L248.191 74.4072V66.4072L251.191 51.4072L258.191 38.4072L266.191 29.4072L276.191 22.4072L286.191 18.4072L296.191 16.4072Z" fill="#D2E7ED"/>
<path d="M637.191 100.407L741.191 101.407V135.407H501.191V101.407L637.191 100.407Z" fill="#FDFDFD"/>
<path d="M865.191 100.407L996.191 101.407V134.407L995.191 135.407H757.191V101.407L865.191 100.407Z" fill="#FDFDFD"/>
<path d="M89.1914 453.406L107.191 457.406L138.191 466.406L143.191 468.406L144.191 470.406L146.191 499.406V534.406L149.191 565.406L151.191 598.406L154.191 614.406L155.191 616.406L163.191 615.406L175.191 613.406H181.191L180.191 616.406L155.191 627.406H151.191L148.191 619.406L144.191 595.406L131.191 547.406L128.191 530.406L127.191 518.406L115.191 524.406L105.191 531.406L96.1914 535.406H92.1914L89.1914 544.406L76.1914 575.406L64.1914 601.406L63.1914 604.406L61.1914 622.406L57.1914 632.406L56.1914 634.406H53.1914L52.1914 632.406V617.406L55.1914 606.406L61.1914 595.406L70.1914 555.406L76.1914 531.406L79.1914 517.406L82.1914 486.406L87.1914 458.406L89.1914 453.406Z" fill="#F9C44D"/>
<path d="M1100.19 407.406H1104.19L1106.19 410.406L1105.19 419.406L1104.19 424.406L1109.19 425.406V426.406H1103.19V445.406L1109.19 481.406V484.406H1116.19L1118.19 488.406V491.406H1109.19L1110.19 505.406L1096.19 506.406V501.406L1089.19 503.406L1076.19 504.406L1075.19 501.406L1071.19 503.406H1074.19V506.406H1001.19L989.191 485.406L981.191 470.406V467.406H1008.19L1022.19 468.406L1028.19 478.406L1041.19 501.406L1049.19 499.406L1066.19 493.406H1068.19V490.406L1083.19 485.406H1085.19V472.406L1089.19 437.406L1091.19 420.406L1100.19 407.406ZM1067.19 501.406L1064.19 504.406L1068.19 503.406L1069.19 501.406H1067.19ZM1058.19 502.406V504.406L1062.19 502.406H1058.19Z" fill="#D2E6EC"/>
<path d="M745.191 16.4072H759.191L770.191 20.4072L778.191 26.4072L806.191 50.4072L818.191 60.4072V62.4072H686.191V60.4072L697.191 51.4072L712.191 38.4072L726.191 26.4072L736.191 19.4072L745.191 16.4072Z" fill="#254663"/>
<path d="M1091.19 354.407H1098.19L1105.19 357.407L1110.19 363.407L1114.19 371.407L1119.19 369.407H1133.19L1141.19 374.407L1146.19 380.407L1149.19 389.407L1148.19 401.407L1156.19 407.407L1160.19 413.407L1162.19 419.407V426.407L1159.19 435.407L1155.19 439.407L1153.19 430.407L1149.19 414.407L1147.19 409.407L1123.19 401.407L1119.19 399.407L1114.19 398.407L1107.19 392.407L1103.19 386.407V384.407L1098.19 385.407L1089.19 382.407L1082.19 377.407L1077.19 370.407L1076.19 374.407L1080.19 385.407L1085.19 394.407L1093.19 393.407L1100.19 395.407L1104.19 400.407L1105.19 405.407L1102.19 408.407H1100.19L1092.19 420.407L1090.19 437.407L1086.19 472.407L1081.19 470.407L1076.19 466.407L1071.19 458.407L1069.19 451.407V442.407L1072.19 433.407L1080.19 424.407L1082.19 413.407L1088.19 404.407V402.407L1081.19 394.407L1074.19 379.407L1073.19 371.407L1076.19 363.407L1083.19 357.407L1091.19 354.407Z" fill="#1B232A"/>
<path d="M1165.19 447.406L1172.19 448.406L1173.19 451.406L1171.19 463.406L1170.19 475.406V486.406L1172.19 503.406L1179.19 524.406L1183.19 537.406V554.406L1179.19 563.406L1172.19 569.406H1127.19L1125.19 574.406L1122.19 577.406V589.406L1123.19 590.406V614.406L1131.19 618.406L1151.19 627.406L1162.19 633.406L1164.19 638.406H1159.19L1161.19 644.406L1159.19 646.406L1154.19 645.406L1155.19 639.406L1119.19 626.406L1110.19 628.406L1080.19 639.406L1082.19 644.406L1080.19 646.406L1075.19 645.406V638.406H1071.19L1073.19 633.406L1094.19 622.406L1111.19 615.406L1112.19 590.406L1113.19 589.406L1114.19 576.406L1110.19 574.406L1108.19 570.406L1063.19 569.406L1062.19 564.406L1064.19 561.406V563.406L1172.19 562.406V560.406H1174.19L1176.19 553.406V537.406L1170.19 519.406L1167.19 511.406L1162.19 510.406L1155.19 491.406V448.406L1165.19 447.406Z" fill="#274965"/>
<path d="M996.191 212.407L1004.19 218.407L1016.19 229.407L1027.19 238.407L1037.19 247.407L1048.19 256.407L1057.19 264.407L1051.19 271.407L1035.19 286.407L1023.19 297.407L1010.19 309.407L1000.19 318.407L996.191 321.407V212.407Z" fill="#566E81"/>
<path d="M501.191 218.407H502.191V314.407L498.191 312.407L483.191 298.407L475.191 291.407L459.191 276.407L449.191 267.407L447.191 266.407L449.191 262.407L462.191 251.407L476.191 239.407L487.191 230.407L497.191 221.407L501.191 218.407Z" fill="#566E81"/>
<path d="M365.191 214.407L373.191 215.407L380.191 221.407L382.191 227.407V259.407L381.191 266.407L378.191 270.407V276.407L369.191 281.407L366.191 283.407L362.191 282.407L355.191 276.407L353.191 257.407L349.191 247.407L350.191 240.407L349.191 235.407L355.191 228.407L360.191 220.407L362.191 216.407L365.191 214.407Z" fill="#FDFDFD"/>
<path d="M1069.19 546.406L1086.19 547.406L1109.19 549.406H1138.19L1147.19 547.406L1149.19 546.406H1168.19L1172.19 552.406L1173.19 562.406L1172.19 563.406H1064.19L1063.19 561.406V552.406L1068.19 547.406L1069.19 546.406Z" fill="#181F25"/>
<path d="M1017.19 540.406H1018.19L1019.19 573.406L1022.19 617.406L983.191 616.406L986.191 607.406L1002.19 573.406L1015.19 544.406L1017.19 540.406Z" fill="#FAC44D"/>
<path d="M1042.19 542.406L1054.19 543.406L1058.19 544.406V616.406H1036.19V603.406L1041.19 543.406L1042.19 542.406Z" fill="#FAC44D"/>
<path d="M1017.19 231.407L1021.19 233.407L1036.19 246.407L1057.19 264.407L1051.19 271.407L1035.19 286.407L1023.19 297.407L1018.19 301.407H1017.19V231.407Z" fill="#244662"/>
<path d="M280.191 44.4072H295.191L297.191 47.4072V63.4072L295.191 66.4072H293.191L296.191 74.4072L302.191 79.4072L307.191 80.4072L310.191 77.4072H328.191L330.191 79.4072V93.4072L326.191 97.4072L315.191 98.4072L302.191 96.4072L291.191 90.4072L283.191 82.4072L278.191 72.4072L276.191 64.4072V49.4072L278.191 45.4072L280.191 44.4072Z" fill="#34536D"/>
<path d="M1182.19 221.407H1216.19V266.407L1227.19 267.407V272.407H1192.19L1191.19 227.407L1182.19 226.407V221.407Z" fill="#F5F9F9"/>
<path d="M127.191 517.406H135.191L143.191 522.406L145.191 525.406L149.191 565.406L151.191 598.406L154.191 614.406L155.191 616.406L163.191 615.406L175.191 613.406H181.191L180.191 616.406L155.191 627.406H151.191L148.191 619.406L144.191 595.406L131.191 547.406L128.191 530.406L127.191 517.406Z" fill="#FDFCFB"/>
<path d="M1075.19 368.407L1076.19 372.407L1078.19 381.407L1085.19 394.407L1093.19 393.407L1100.19 395.407L1104.19 400.407L1105.19 405.407L1102.19 408.407H1100.19L1092.19 420.407L1090.19 437.407L1086.19 472.407L1081.19 470.407L1076.19 466.407L1071.19 458.407L1069.19 451.407V442.407L1072.19 433.407L1080.19 424.407L1082.19 413.407L1088.19 404.407V402.407L1081.19 394.407L1074.19 379.407L1073.19 371.407L1075.19 368.407Z" fill="#1D262D"/>
<path d="M1076.19 369.407L1086.19 379.407L1093.19 383.407L1103.19 384.407L1110.19 394.407L1117.19 399.407L1112.19 407.407L1114.19 423.407L1115.19 456.407L1117.19 475.407V481.407H1115.19V483.407L1109.19 484.407L1105.19 463.407L1102.19 445.407V431.407L1105.19 415.407V410.407L1104.19 405.407L1102.19 398.407L1098.19 395.407L1091.19 394.407L1085.19 395.407L1080.19 387.407L1076.19 378.407L1075.19 372.407L1076.19 369.407Z" fill="#FBFBF8"/>
<path d="M118.191 284.407H130.191L136.191 287.407L141.191 293.407L140.191 297.407L139.191 293.407H137.191V290.407H135.191L134.191 299.407L130.191 307.407L124.191 312.407L121.191 313.407L118.191 326.407L115.191 331.407L110.191 334.407L95.1914 335.407L90.1914 330.407L88.1914 326.407V323.407L98.1914 319.407L104.191 312.407L105.191 309.407L106.191 297.407L110.191 289.407L115.191 285.407L118.191 284.407Z" fill="#5D717E"/>
<path d="M481.191 235.407H484.191V265.407L485.191 284.407V298.407L480.191 296.407L470.191 286.407L462.191 279.407L455.191 272.407L447.191 266.407L449.191 262.407L462.191 251.407L476.191 239.407L481.191 235.407Z" fill="#254764"/>
<path d="M1112.19 590.406H1114.19L1115.19 616.406L1120.19 617.406L1121.19 614.406L1126.19 616.406L1147.19 625.406L1162.19 633.406L1164.19 638.406H1159.19L1161.19 644.406L1159.19 646.406L1154.19 645.406L1155.19 639.406L1119.19 626.406L1110.19 628.406L1080.19 639.406L1082.19 644.406L1080.19 646.406L1075.19 645.406V638.406H1071.19L1073.19 633.406L1094.19 622.406L1111.19 615.406L1112.19 590.406Z" fill="#D3E6E8"/>
<path d="M78.1914 524.406H80.1914L84.1914 530.406L92.1914 535.406L89.1914 544.406L76.1914 575.406L64.1914 601.406L63.1914 604.406L61.1914 622.406L57.1914 632.406L56.1914 634.406H53.1914L52.1914 632.406V617.406L55.1914 606.406L61.1914 595.406L70.1914 555.406L76.1914 531.406L78.1914 524.406Z" fill="#FCFCFA"/>
<path d="M1165.19 447.406L1172.19 448.406L1173.19 451.406L1171.19 463.406L1169.19 469.406V491.406L1171.19 510.406H1162.19L1155.19 491.406V448.406L1165.19 447.406Z" fill="#1D262D"/>
<path d="M1109.19 484.406H1116.19L1118.19 488.406V491.406H1109.19L1110.19 505.406L1096.19 506.406V501.406L1089.19 503.406L1076.19 504.406L1075.19 501.406L1069.19 504.406L1067.19 502.406L1063.19 504.406V500.406L1072.19 492.406L1078.19 489.406L1104.19 485.406L1109.19 484.406Z" fill="#D2E7ED"/>
<path d="M1017.19 231.407L1021.19 233.407L1036.19 246.407L1057.19 264.407L1056.19 266.407L1054.19 265.407L1017.19 264.407V231.407Z" fill="#254764"/>
<path d="M1113.19 423.406H1114.19L1115.19 456.406L1117.19 475.406V481.406H1115.19V483.406L1109.19 484.406L1105.19 463.406L1102.19 445.406V431.406L1103.19 426.406L1111.19 424.406L1113.19 423.406Z" fill="#FAC44D"/>
<path d="M1203.19 183.407L1210.19 184.407L1216.19 189.407L1218.19 194.407L1217.19 203.407L1213.19 208.407L1210.19 210.407H1199.19L1194.19 207.407L1191.19 202.407V192.407L1194.19 187.407L1199.19 184.407L1203.19 183.407Z" fill="#F8FAFB"/>
<path d="M802.191 503.406H913.191L914.191 507.406L913.191 508.406H802.191L801.191 504.406L802.191 503.406Z" fill="#F0F0E5"/>
<path d="M135.191 290.407H137.191V293.407H139.191L141.191 296.407H142.191V323.407H141.191L140.191 316.407L131.191 320.407L128.191 325.407L127.191 332.407L122.191 337.407L117.191 336.407L115.191 332.407L113.191 331.407L116.191 328.407L119.191 319.407L121.191 312.407L127.191 309.407L131.191 304.407L134.191 295.407L135.191 290.407Z" fill="#F9F0D9"/>
<path d="M802.191 531.406H926.191V535.406H801.191L802.191 531.406Z" fill="#FDFDFD"/>
<path d="M802.191 517.406H926.191V521.406H801.191L802.191 517.406Z" fill="#F2F8F9"/>
<path d="M967.191 612.406L979.191 617.406L972.191 633.406L967.191 643.406H964.191L963.191 640.406H941.191L931.191 638.406V636.406L942.191 634.406L960.191 631.406L966.191 613.406L967.191 612.406Z" fill="#FBFBF8"/>
<path d="M1204.19 226.407H1210.19V267.407H1199.19L1198.19 266.407V227.407L1204.19 226.407Z" fill="#294A66"/>
<path d="M282.191 49.4072H292.191V60.4072L288.191 62.4072L289.191 71.4072L293.191 78.4072L299.191 83.4072L304.191 85.4072L312.191 86.4072L313.191 82.4072H325.191V92.4072L317.191 93.4072L303.191 91.4072L295.191 87.4072L287.191 79.4072L282.191 69.4072L281.191 58.4072V50.4072L282.191 49.4072Z" fill="#D2E7ED"/>
<path d="M469.191 371.407H472.191L476.191 387.407L477.191 401.407L481.191 400.407L492.191 404.407L498.191 408.407L495.191 409.407L485.191 406.407H481.191V408.407H487.191V410.407H477.191L464.191 392.407L457.191 382.407L458.191 379.407L469.191 371.407Z" fill="#FAFBFC"/>
<path d="M1169.19 465.406H1170.19V486.406L1172.19 503.406L1179.19 524.406L1183.19 537.406V554.406L1179.19 563.406L1172.19 569.406H1127.19V568.406L1159.19 567.406L1172.19 566.406L1174.19 561.406L1172.19 560.406H1174.19L1176.19 553.406V537.406L1167.19 510.406H1171.19L1169.19 501.406L1168.19 491.406V469.406L1169.19 465.406Z" fill="#566E80"/>
<path d="M45.1914 411.406L54.1914 412.406L80.1914 419.406L101.191 425.406L143.191 436.406L144.191 440.406L136.191 439.406L88.1914 426.406H85.1914L82.1914 442.406L80.1914 445.406L81.1914 453.406H79.1914L77.1914 448.406L79.1914 433.406L82.1914 424.406L66.1914 420.406L45.1914 414.406V411.406Z" fill="#FDFDFD"/>
<path d="M752.191 526.406H773.191L778.191 530.406L779.191 539.406H747.191L746.191 538.406L747.191 530.406L752.191 526.406Z" fill="#F7FAFA"/>
<path d="M1023.19 621.406H1033.19L1034.19 624.406V636.406L1032.19 641.406L1030.19 643.406L1024.19 645.406L1016.19 650.406L1013.19 651.406H1002.19L1004.19 647.406L1017.19 638.406L1022.19 634.406L1023.19 621.406Z" fill="#FAFAF8"/>
<path d="M801.191 545.406H897.191V549.406H801.191V545.406Z" fill="#FCFCFC"/>
<path d="M365.191 214.407L373.191 215.407L380.191 221.407L382.191 227.407V233.407L378.191 229.407H365.191L360.191 231.407L352.191 241.407L349.191 238.407L350.191 234.407L357.191 225.407L360.191 220.407L362.191 216.407L365.191 214.407Z" fill="#294A66"/>
<path d="M1109.19 484.406H1116.19L1118.19 488.406V491.406L1089.19 492.406L1079.19 497.406L1075.19 501.406L1069.19 504.406L1067.19 502.406L1063.19 504.406V500.406L1072.19 492.406L1078.19 489.406L1104.19 485.406L1109.19 484.406Z" fill="#FCFDFD"/>
<path d="M321.191 375.407L325.191 377.407L336.191 395.407V402.407L327.191 397.407L317.191 389.407L311.191 382.407L321.191 375.407Z" fill="#FDFDFD"/>
<path d="M426.191 609.406L430.191 610.406L437.191 614.406L450.191 619.406L452.191 622.406H417.191L416.191 614.406L426.191 609.406Z" fill="#192127"/>
<path d="M1114.19 577.406H1115.19V588.406H1121.19L1123.19 590.406V613.406L1120.19 618.406L1115.19 617.406L1114.19 616.406L1113.19 589.406L1114.19 577.406Z" fill="#6E7F85"/>
<path d="M350.191 610.406H363.191L364.191 615.406L363.191 618.406L356.191 622.406H341.191L340.191 618.406L349.191 611.406L350.191 610.406Z" fill="#1A2128"/>
<path d="M90.1914 411.406L147.191 426.406V430.406L140.191 429.406L93.1914 416.406L89.1914 414.406L90.1914 411.406Z" fill="#FEFEFE"/>
<path d="M29.1914 395.406L40.1914 397.406L81.1914 408.406L83.1914 411.406L82.1914 412.406L74.1914 411.406L30.1914 399.406L28.1914 398.406L29.1914 395.406Z" fill="#FEFEFE"/>
<path d="M1202.19 189.407L1209.19 190.407L1212.19 194.407V200.407L1208.19 204.407L1202.19 205.407L1197.19 201.407L1196.19 196.407L1199.19 191.407L1202.19 189.407Z" fill="#304F6A"/>
<path d="M140.191 314.407H141.191V326.407L138.191 331.407L133.191 334.407L127.191 332.407V325.407L130.191 320.407L134.191 317.407L140.191 316.407V314.407Z" fill="#5A707F"/>
<path d="M215.191 245.407H218.191V248.407L170.191 265.407L164.191 267.407H160.191L161.191 264.407L215.191 245.407Z" fill="#EDF5F7"/>
<path d="M210.191 230.407H213.191V233.407L165.191 250.407L156.191 253.407V249.407L199.191 234.407L210.191 230.407Z" fill="#EEF5F8"/>
<path d="M211.191 238.407L216.191 239.407L212.191 242.407L160.191 260.407H158.191V257.407L194.191 244.407L211.191 238.407Z" fill="#EFF6F8"/>
<path d="M206.191 223.407H210.191L209.191 226.407L167.191 241.407L156.191 245.407H152.191L153.191 242.407L195.191 227.407L206.191 223.407Z" fill="#EDF5F7"/>
<path d="M764.191 505.406H771.191L775.191 509.406V515.406L771.191 519.406L766.191 520.406L762.191 518.406L760.191 515.406L761.191 508.406L764.191 505.406Z" fill="#FAFAF7"/>
<path d="M1109.19 491.406H1119.19L1120.19 504.406L1118.19 505.406H1110.19L1109.19 501.406V491.406Z" fill="#FAC44D"/>
<path d="M942.191 634.406H945.191V638.406L970.191 636.406L968.191 642.406L965.191 644.406L963.191 640.406H941.191L931.191 638.406V636.406L942.191 634.406Z" fill="#27323C"/>
<path d="M1032.19 635.406L1034.19 636.406L1032.19 641.406L1030.19 643.406L1024.19 645.406L1016.19 650.406L1013.19 651.406H1002.19L1004.19 647.406L1007.19 645.406L1015.19 646.406L1030.19 637.406L1032.19 635.406Z" fill="#212B33"/>
<path d="M168.191 319.407H169.191V329.407L165.191 348.407H163.191L160.191 344.407L163.191 336.407V326.407L162.191 321.407L168.191 319.407Z" fill="#FCFDFD"/>
<path d="M120.191 389.406H128.191L131.191 399.406L121.191 397.406L111.191 394.406L114.191 391.406L120.191 389.406Z" fill="#FAC44D"/>
<path d="M175.191 613.406H181.191L180.191 616.406L155.191 627.406H151.191V623.406L166.191 618.406L172.191 614.406L175.191 613.406Z" fill="#777F76"/>
<path d="M195.191 197.407L201.191 200.407L205.191 209.407L202.191 212.407L196.191 213.407L194.191 208.407L195.191 204.407H198.191L194.191 200.407L195.191 197.407Z" fill="#F2F7F7"/>
<path d="M173.191 285.407L177.191 286.407L178.191 293.407L174.191 294.407L178.191 298.407V300.407L172.191 299.407L169.191 294.407L168.191 287.407L173.191 285.407Z" fill="#F4F7F5"/>
<path d="M184.191 281.407L188.191 282.407L190.191 289.407L185.191 290.407V292.407L189.191 293.407V296.407L184.191 295.407L181.191 292.407L179.191 283.407L184.191 281.407Z" fill="#F4F8F8"/>
<path d="M183.191 202.407L189.191 203.407L192.191 208.407L193.191 215.407L188.191 217.407L184.191 216.407L183.191 209.407L187.191 208.407L183.191 204.407V202.407Z" fill="#F2F8F9"/>
<path d="M1112.19 590.406H1114.19L1115.19 616.406L1120.19 617.406L1121.19 614.406L1125.19 616.406L1121.19 620.406L1119.19 623.406L1115.19 622.406L1112.19 617.406L1110.19 616.406L1111.19 615.406L1112.19 590.406Z" fill="#EBCC7B"/>
<path d="M1106.19 617.406L1109.19 618.406L1088.19 628.406L1078.19 635.406L1075.19 638.406H1071.19L1073.19 633.406L1094.19 622.406L1106.19 617.406Z" fill="#D6B86C"/>
<path d="M211.191 238.407L216.191 239.407L212.191 242.407L189.191 250.407H187.191L188.191 246.407L211.191 238.407Z" fill="#EFF6F8"/>
<path d="M187.191 255.407L189.191 256.407L187.191 259.407L164.191 267.407H160.191L161.191 264.407L187.191 255.407Z" fill="#EDF5F7"/>
<path d="M1126.19 617.406L1131.19 618.406L1151.19 627.406L1162.19 633.406L1164.19 638.406L1159.19 637.406L1150.19 629.406L1138.19 624.406L1126.19 618.406V617.406Z" fill="#92998C"/>
<path d="M210.191 230.407H213.191V233.407L188.191 242.407H186.191L187.191 238.407L210.191 230.407Z" fill="#EDF5F7"/>
<path d="M219.191 252.407L221.191 253.407V255.407L200.191 263.407H195.191L196.191 260.407L219.191 252.407Z" fill="#EFF6F8"/>
<path d="M1169.19 465.406H1170.19V486.406L1172.19 503.406L1173.19 511.406L1171.19 514.406L1169.19 510.406H1171.19L1169.19 501.406L1168.19 491.406V469.406L1169.19 465.406Z" fill="#38566F"/>
<path d="M52.1914 617.406H53.1914L54.1914 626.406L58.1914 624.406L60.1914 619.406L61.1914 622.406L57.1914 632.406L56.1914 634.406H53.1914L52.1914 632.406V617.406Z" fill="#938E6D"/>
<path d="M1075.19 368.407L1076.19 372.407L1078.19 381.407L1084.19 394.407H1081.19L1074.19 379.407L1073.19 371.407L1075.19 368.407Z" fill="#354450"/>
<path d="M169.191 236.407L172.191 237.407L170.191 240.407L156.191 245.407H152.191L153.191 242.407L169.191 236.407Z" fill="#EFF5F5"/>
<path d="M276.191 49.4072H277.191L278.191 56.4072H279.191L280.191 50.4072L282.191 53.4072V69.4072L280.191 65.4072L279.191 64.4072L278.191 69.4072H277.191L276.191 64.4072V49.4072Z" fill="#566E81"/>
<path d="M168.191 245.407L170.191 246.407L168.191 249.407L156.191 253.407V249.407L168.191 245.407Z" fill="#F0F7F8"/>
<path d="M1076.19 639.406L1081.19 640.406L1082.19 644.406L1080.19 646.406L1075.19 645.406V640.406L1076.19 639.406Z" fill="#222D37"/>
<path d="M1060.19 503.406H1069.19L1070.19 504.406L1074.19 503.406V506.406H1055.19L1057.19 504.406L1060.19 503.406Z" fill="#D3E7ED"/>
<path d="M1068.19 639.406L1072.19 640.406L1073.19 645.406L1068.19 646.406L1066.19 644.406L1067.19 640.406L1068.19 639.406Z" fill="#304658"/>
<path d="M1164.19 639.406L1168.19 640.406L1169.19 645.406L1164.19 646.406L1162.19 644.406L1163.19 640.406L1164.19 639.406Z" fill="#2B3C4A"/>
<path d="M1155.19 639.406L1160.19 640.406L1161.19 644.406L1159.19 646.406L1154.19 645.406L1155.19 639.406Z" fill="#212C34"/>
<path d="M966.191 636.406H970.191L968.191 642.406L965.191 644.406L962.191 640.406L963.191 637.406L966.191 636.406Z" fill="#1D262D"/>
<path d="M1032.19 635.406L1034.19 636.406L1032.19 641.406L1030.19 643.406L1023.19 645.406L1025.19 640.406L1031.19 636.406L1032.19 635.406Z" fill="#26313A"/>
<path d="M1080.19 629.406L1082.19 630.406L1078.19 635.406L1075.19 638.406H1071.19L1073.19 633.406L1080.19 629.406Z" fill="#778689"/>
<path d="M196.191 235.407L198.191 236.407L199.191 238.407L188.191 242.407H186.191L187.191 238.407L196.191 235.407Z" fill="#EBF4F6"/>
<path d="M181.191 232.407L183.191 233.407L184.191 235.407L173.191 239.407H171.191L172.191 235.407L181.191 232.407Z" fill="#ECF4F7"/>
<path d="M187.191 255.407L189.191 256.407L187.191 259.407L177.191 262.407L178.191 258.407L187.191 255.407Z" fill="#F1F7F9"/>
<path d="M194.191 244.407L197.191 245.407L198.191 247.407L187.191 250.407L188.191 246.407L194.191 244.407Z" fill="#EAF3F6"/>
<path d="M215.191 245.407H218.191V248.407L208.191 251.407L209.191 247.407L215.191 245.407Z" fill="#EAF3F6"/>
<path d="M206.191 223.407H210.191L209.191 226.407L204.191 228.407H199.191L203.191 224.407L206.191 223.407Z" fill="#EFF6F8"/>
<path d="M1076.19 382.407L1079.19 383.407L1084.19 394.407H1081.19L1076.19 384.407V382.407Z" fill="#303E49"/>
<path d="M202.191 258.407L204.191 259.407L205.191 261.407L200.191 263.407H195.191L196.191 260.407L202.191 258.407Z" fill="#EEF1EB"/>
<path d="M292.191 49.4072H293.191V62.4072H290.191V64.4072H288.191L287.191 67.4072V62.4072L291.191 60.4072L292.191 49.4072Z" fill="#566E81"/>
</svg>
