<svg width="18" height="18" viewBox="0 0 18 18" fill="none" xmlns="http://www.w3.org/2000/svg">
<path d="M1 5V3C1 2.46957 1.21071 1.96086 1.58579 1.58579C1.96086 1.21071 2.46957 1 3 1H5" stroke="currentColor" stroke-linecap="round" stroke-linejoin="round"/>
<path d="M1 13V15C1 15.5304 1.21071 16.0391 1.58579 16.4142C1.96086 16.7893 2.46957 17 3 17H5" stroke="currentColor" stroke-linecap="round" stroke-linejoin="round"/>
<path d="M13 1H15C15.5304 1 16.0391 1.21071 16.4142 1.58579C16.7893 1.96086 17 2.46957 17 3V5" stroke="currentColor" stroke-linecap="round" stroke-linejoin="round"/>
<path d="M13 17H15C15.5304 17 16.0391 16.7893 16.4142 16.4142C16.7893 16.0391 17 15.5304 17 15V13" stroke="currentColor" stroke-linecap="round" stroke-linejoin="round"/>
<path d="M12.2313 4.3585C12.1869 4.3585 12.1424 4.3475 12.1035 4.3255C11.0366 3.781 10.1143 3.55 9.0085 3.55C7.9083 3.55 6.86366 3.8085 5.91349 4.3255C5.78013 4.397 5.61343 4.3475 5.53564 4.2155C5.50099 4.15118 5.49321 4.07596 5.514 4.00602C5.53478 3.93608 5.58245 3.87701 5.64677 3.8415C6.6803 3.286 7.81384 3 9.0085 3C10.192 3 11.2256 3.2585 12.3591 3.836C12.498 3.9075 12.548 4.0725 12.4758 4.2045C12.4538 4.25035 12.4192 4.28913 12.376 4.31637C12.3327 4.34361 12.2826 4.35822 12.2313 4.3585ZM4.27986 7.246C4.22864 7.24647 4.17829 7.23289 4.13439 7.20677C4.09049 7.18064 4.05477 7.14299 4.03117 7.09799C4.00757 7.05299 3.99703 7.00239 4.00072 6.95183C4.0044 6.90126 4.02217 6.85269 4.05204 6.8115C4.60214 6.0415 5.30227 5.4365 6.13575 5.013C7.88051 4.122 10.1143 4.1165 11.8646 5.0075C12.6981 5.431 13.3982 6.0305 13.9483 6.795C13.9696 6.82456 13.9848 6.858 13.993 6.8934C14.0012 6.9288 14.0022 6.96546 13.996 7.00125C13.9898 7.03705 13.9765 7.07127 13.9569 7.10195C13.9372 7.13263 13.9117 7.15916 13.8816 7.18C13.7538 7.268 13.5816 7.2405 13.4926 7.114C13.006 6.43221 12.3597 5.87736 11.609 5.497C10.0142 4.6885 7.97498 4.6885 6.3858 5.5025C5.6301 5.8875 4.99665 6.4375 4.49656 7.1305C4.45211 7.2075 4.36876 7.246 4.27986 7.246ZM7.75271 13.8845C7.71628 13.8849 7.68015 13.8778 7.64665 13.8636C7.61316 13.8494 7.58304 13.8284 7.55823 13.802C7.07481 13.3235 6.81365 13.0155 6.44136 12.35C6.05796 11.6735 5.85792 10.8485 5.85792 9.963C5.85792 8.3295 7.26929 6.9985 9.00294 6.9985C10.7366 6.9985 12.148 8.3295 12.148 9.963C12.148 10.117 12.0257 10.238 11.8701 10.238C11.7145 10.238 11.5923 10.117 11.5923 9.963C11.5923 8.632 10.431 7.5485 9.00294 7.5485C7.5749 7.5485 6.41358 8.632 6.41358 9.963C6.41358 10.755 6.59139 11.4865 6.93034 12.0805C7.28596 12.713 7.53045 12.9825 7.95831 13.4115C8.06388 13.5215 8.06388 13.692 7.95831 13.802C7.89718 13.857 7.82495 13.8845 7.75271 13.8845ZM11.7368 12.867C11.0755 12.867 10.4921 12.702 10.0142 12.3775C9.18631 11.822 8.69177 10.92 8.69177 9.963C8.69177 9.809 8.81402 9.688 8.9696 9.688C9.12518 9.688 9.24743 9.809 9.24743 9.963C9.24743 10.7385 9.6475 11.47 10.3254 11.921C10.7199 12.185 11.1811 12.3115 11.7368 12.3115C11.8701 12.3115 12.0924 12.295 12.3147 12.2565C12.4647 12.229 12.6092 12.328 12.6369 12.482C12.6647 12.6305 12.5647 12.7735 12.4091 12.801C12.0924 12.8615 11.8146 12.867 11.7368 12.867ZM10.6199 14C10.5977 14 10.5699 13.9945 10.5477 13.989C9.66417 13.747 9.08629 13.4225 8.48062 12.834C8.09682 12.4589 7.79249 12.0118 7.58544 11.5188C7.3784 11.0258 7.27281 10.4969 7.27485 9.963C7.27485 9.072 8.04165 8.346 8.98627 8.346C9.93089 8.346 10.6977 9.072 10.6977 9.963C10.6977 10.5515 11.2145 11.03 11.8535 11.03C12.4925 11.03 13.0092 10.5515 13.0092 9.963C13.0092 7.8895 11.2033 6.2065 8.98071 6.2065C7.40265 6.2065 5.95794 7.0755 5.30782 8.423C5.09112 8.8685 4.97999 9.391 4.97999 9.963C4.97999 10.392 5.01888 11.0685 5.35228 11.9485C5.40784 12.0915 5.33561 12.251 5.19113 12.3005C5.04666 12.3555 4.88552 12.2785 4.83551 12.141C4.56777 11.4454 4.43031 10.7074 4.42988 9.963C4.42988 9.303 4.55769 8.7035 4.80773 8.181C5.54676 6.6465 7.18594 5.651 8.98071 5.651C11.509 5.651 13.5649 7.5815 13.5649 9.9575C13.5649 10.8485 12.7981 11.5745 11.8535 11.5745C10.9088 11.5745 10.142 10.8485 10.142 9.9575C10.142 9.369 9.62528 8.8905 8.98627 8.8905C8.34727 8.8905 7.8305 9.369 7.8305 9.9575C7.8305 10.898 8.19724 11.778 8.86958 12.438C9.39746 12.955 9.9031 13.241 10.6866 13.4555C10.8366 13.494 10.92 13.648 10.8811 13.791C10.8533 13.9175 10.7366 14 10.6199 14Z" fill="currentColor"/>
</svg>
