<svg width="24" height="24" viewBox="0 0 24 24" fill="none" xmlns="http://www.w3.org/2000/svg">
<g clip-path="url(#clip0_2025_59)">
<path d="M22.2297 13.3538C23.3214 12.2631 24.0007 10.745 24 9.07947C24.0007 7.414 23.3214 5.89586 22.2297 4.8055C21.1394 3.71341 19.6216 3.03419 17.9554 3.03522C16.29 3.03419 14.7715 3.71345 13.6818 4.8055C12.5895 5.89586 11.9102 7.414 11.9109 9.07947C11.9102 10.7449 12.5895 12.263 13.6818 13.3538C14.585 14.2583 15.7822 14.878 17.1135 15.0641V17.5474H14.372V19.2323H17.1135V21.8932H18.7981V19.2323H21.5396V17.5474H18.7981V15.0641C20.1293 14.878 21.3265 14.2583 22.2297 13.3538ZM17.9554 12.9338C17.4204 12.9334 16.9161 12.826 16.4553 12.6313C15.7651 12.3396 15.1744 11.8492 14.7585 11.2336C14.3434 10.6173 14.1017 9.88155 14.1017 9.07947C14.1017 8.54416 14.2093 8.04016 14.4039 7.57975C14.6952 6.88923 15.1853 6.29884 15.8013 5.88297C16.4179 5.46747 17.1536 5.22583 17.9554 5.22512C18.4904 5.2255 18.9947 5.33303 19.4555 5.52803C20.1457 5.81931 20.7365 6.30972 21.1523 6.92533C21.5675 7.54202 21.8091 8.27772 21.8098 9.07952C21.8091 9.61483 21.7016 10.1188 21.5069 10.5793C21.2156 11.2697 20.7249 11.8605 20.1096 12.2761C19.4929 12.6918 18.7579 12.9332 17.9554 12.9338Z" fill="currentColor"/>
<path d="M6.88649 9.48307V5.33229L8.55945 7.00493L9.7512 5.81384L6.04456 2.10687L2.33722 5.81384L3.52831 7.00493L5.20194 5.33197V9.48307C3.87064 9.66954 2.67345 10.2893 1.77027 11.1941C0.677891 12.2845 -0.000671033 13.8023 -1.47832e-05 15.4678C-0.000671033 17.134 0.677891 18.6517 1.77027 19.742C2.86063 20.8345 4.37839 21.5134 6.04456 21.5127C7.71003 21.5134 9.22784 20.8345 10.3182 19.742C11.4105 18.6517 12.0891 17.1339 12.0891 15.4678C12.0891 13.8023 11.4105 12.2845 10.3182 11.1942C9.41502 10.2893 8.21778 9.66954 6.88649 9.48307ZM9.59605 16.9679C9.30406 17.6584 8.81403 18.2488 8.1987 18.6647C7.58211 19.0805 6.84636 19.3222 6.04456 19.3222C5.50892 19.3222 5.00525 19.2147 4.54447 19.02C3.85433 18.728 3.26352 18.2379 2.84769 17.6223C2.43181 17.0057 2.19022 16.2702 2.19022 15.4678C2.19022 14.9329 2.29775 14.4289 2.49238 13.9685C2.78436 13.2783 3.27444 12.6875 3.89038 12.2717C4.50631 11.8562 5.24206 11.6149 6.04452 11.6142C6.5795 11.6142 7.08313 11.7217 7.54461 11.9167C8.23409 12.2084 8.82486 12.6984 9.24074 13.314C9.65656 13.9307 9.8982 14.6661 9.8982 15.4678C9.89825 16.0034 9.79067 16.5078 9.59605 16.9679Z" fill="currentColor"/>
</g>
<defs>
<clipPath id="clip0_2025_59">
<rect width="24" height="24" fill="white"/>
</clipPath>
</defs>
</svg>