<svg width="24" height="24" viewBox="0 0 24 24" fill="none" xmlns="http://www.w3.org/2000/svg">
<path d="M14.6451 2.42885C14.1201 2.27404 13.5806 2.17351 13.0351 2.12885C11.8283 1.98609 10.6053 2.08122 9.43508 2.40885L9.36508 2.42885C7.26688 3.005 5.41606 4.25449 4.09728 5.98516C2.77849 7.71582 2.06478 9.8318 2.06592 12.0077C2.06706 14.1835 2.78297 16.2988 4.10356 18.0281C5.42415 19.7573 7.27628 21.0049 9.37508 21.5789C10.1432 21.7964 10.9368 21.9107 11.7351 21.9189C11.8241 21.9349 11.9146 21.9416 12.0051 21.9389C12.8941 21.9399 13.7791 21.8188 14.6351 21.5789C16.7321 21.0029 18.5821 19.7546 19.901 18.0255C21.2199 16.2965 21.9348 14.1823 21.9359 12.0077C21.937 9.83301 21.2243 7.7181 19.9072 5.98768C18.5902 4.25726 16.7415 3.00699 14.6451 2.42885ZM14.3751 3.38885C15.6699 3.74706 16.8674 4.3925 17.8784 5.27718C18.8895 6.16186 19.6882 7.26303 20.2151 8.49885H15.9551C15.4459 6.53586 14.5104 4.7092 13.2151 3.14885C13.6071 3.20008 13.9949 3.2803 14.3751 3.38885ZM12.0051 3.29885C13.3707 4.77912 14.3677 6.56073 14.9151 8.49885H9.07508C9.61965 6.55583 10.6247 4.77277 12.0051 3.30085V3.29885ZM15.1651 9.49885C15.4849 11.1535 15.4849 12.8542 15.1651 14.5089H8.84508C8.67593 13.6863 8.59215 12.8486 8.59508 12.0089C8.59288 11.1659 8.67664 10.3248 8.84508 9.49885H15.1651ZM9.56508 3.40885L9.63508 3.38885C10.0163 3.28684 10.4038 3.21001 10.7951 3.15885C9.49162 4.71224 8.55203 6.53744 8.04508 8.50085H3.80008C4.32507 7.27886 5.11437 6.18842 6.1112 5.30796C7.10803 4.4275 8.28761 3.77891 9.56508 3.40885ZM3.06508 12.0089C3.0651 11.1586 3.18976 10.3129 3.43508 9.49885H7.82508C7.6731 10.3269 7.59612 11.167 7.59508 12.0089C7.59672 12.8474 7.6737 13.6841 7.82508 14.5089H3.43508C3.18931 13.6983 3.06463 12.8559 3.06508 12.0089ZM9.63508 20.6189C8.33899 20.2633 7.14026 19.6189 6.12882 18.7339C5.11739 17.8489 4.31952 16.7463 3.79508 15.5089H8.03508C8.54684 17.4768 9.4934 19.305 10.8051 20.8589C10.4096 20.8081 10.0186 20.7279 9.63508 20.6189ZM9.07508 15.5089H14.9151C14.3748 17.4529 13.377 19.2393 12.0051 20.7189C10.634 19.2355 9.63037 17.451 9.07508 15.5089ZM14.3751 20.6189C13.9893 20.7182 13.5988 20.7983 13.2051 20.8589C14.504 19.2994 15.443 17.4727 15.9551 15.5089H20.2151C19.6894 16.7455 18.8911 17.8473 17.8799 18.7322C16.8686 19.617 15.6705 20.262 14.3751 20.6189ZM16.1751 14.5089C16.4853 12.8533 16.4853 11.1544 16.1751 9.49885H20.5651C20.8148 10.312 20.9395 11.1583 20.9351 12.0089C20.9373 12.8553 20.8161 13.6975 20.5751 14.5089H16.1751Z" fill="currentColor"/>
</svg>
