<svg width="24" height="24" viewBox="0 0 24 24" fill="none" xmlns="http://www.w3.org/2000/svg">
    <path
        d="M16.73 2.065L7.27001 2.065C6.64263 2.10269 6.05546 2.38639 5.63604 2.85449C5.21663 3.32259 4.99885 3.93727 5.03001 4.565L5.03001 19.435C4.99885 20.0627 5.21663 20.6774 5.63604 21.1455C6.05546 21.6136 6.64263 21.8973 7.27001 21.935L16.73 21.935C17.3574 21.8973 17.9446 21.6136 18.364 21.1455C18.7834 20.6774 19.0012 20.0627 18.97 19.435L18.97 4.565C19.0012 3.93727 18.7834 3.32259 18.364 2.85449C17.9446 2.38639 17.3574 2.10269 16.73 2.065ZM17.97 19.435C18.0008 19.7976 17.8882 20.1578 17.6563 20.4382C17.4245 20.7187 17.0919 20.897 16.73 20.935L7.27001 20.935C6.90811 20.897 6.57554 20.7187 6.34369 20.4382C6.11185 20.1578 5.99922 19.7976 6.03001 19.435L6.03001 4.565C5.99922 4.20243 6.11185 3.84224 6.34369 3.56178C6.57554 3.28133 6.90811 3.10297 7.27001 3.065L8.80001 3.065L8.80001 3.575C8.80001 3.84022 8.90536 4.09457 9.0929 4.28211C9.28044 4.46965 9.53479 4.575 9.80001 4.575L14.2 4.575C14.4652 4.575 14.7196 4.46965 14.9071 4.28211C15.0946 4.09457 15.2 3.84022 15.2 3.575L15.2 3.065L16.73 3.065C17.0919 3.10297 17.4245 3.28133 17.6563 3.56178C17.8882 3.84224 18.0008 4.20243 17.97 4.565L17.97 19.435Z"
        fill="currentColor" />
    <path
        d="M10 18.934L14 18.934C14.1326 18.934 14.2598 18.8813 14.3536 18.7876C14.4473 18.6938 14.5 18.5666 14.5 18.434C14.5 18.3014 14.4473 18.1742 14.3536 18.0805C14.2598 17.9867 14.1326 17.934 14 17.934L10 17.934C9.86739 17.934 9.74021 17.9867 9.64645 18.0805C9.55268 18.1742 9.5 18.3014 9.5 18.434C9.5 18.5666 9.55268 18.6938 9.64645 18.7876C9.74021 18.8813 9.86739 18.934 10 18.934Z"
        fill="currentColor" />
</svg>