<svg width="500" height="500" viewBox="0 0 500 500" fill="none" xmlns="http://www.w3.org/2000/svg">
<path d="M96.3799 405.5V413.02H152.68V405.5H96.3799Z" fill="#E0E0E0"/>
<path d="M104.06 405.8C104.25 405.8 104.41 407.38 104.41 409.33C104.41 411.28 104.25 412.85 104.06 412.85C103.87 412.85 103.7 411.27 103.7 409.33C103.7 407.39 103.86 405.8 104.06 405.8Z" fill="#FAFAFA"/>
<path d="M102.83 405.65C103.03 405.65 103.18 407.23 103.18 409.17C103.18 411.11 103.03 412.7 102.83 412.7C102.63 412.7 102.48 411.12 102.48 409.17C102.48 407.22 102.63 405.65 102.83 405.65Z" fill="#FAFAFA"/>
<path d="M148.33 405.8C148.53 405.8 148.69 407.38 148.69 409.33C148.69 411.28 148.53 412.85 148.33 412.85C148.13 412.85 147.98 411.27 147.98 409.33C147.98 407.39 148.14 405.8 148.33 405.8Z" fill="#FAFAFA"/>
<path d="M147.11 405.65C147.3 405.65 147.46 407.23 147.46 409.17C147.46 411.11 147.3 412.7 147.11 412.7C146.92 412.7 146.75 411.12 146.75 409.17C146.75 407.22 146.91 405.65 147.11 405.65Z" fill="#FAFAFA"/>
<path d="M139.75 409.48C139.75 409.68 133.3 409.83 125.35 409.83C117.4 409.83 110.95 409.68 110.95 409.48C110.95 409.28 117.4 409.13 125.35 409.13C133.3 409.13 139.75 409.28 139.75 409.48Z" fill="#FAFAFA"/>
<path d="M96.1396 439.36V454.4H152.44V439.36H96.1396Z" fill="#E0E0E0"/>
<path d="M153.16 450.17C153.16 450.17 153.07 450.24 152.86 450.34C152.65 450.44 152.34 450.59 151.92 450.77C150.696 451.289 149.413 451.655 148.1 451.86C145.996 452.242 143.825 451.933 141.91 450.98C140.726 450.349 139.716 449.436 138.97 448.32C138.114 447.05 137.758 445.507 137.97 443.99C138.093 443.166 138.439 442.392 138.97 441.75C139.255 441.399 139.617 441.119 140.028 440.931C140.439 440.744 140.888 440.654 141.34 440.67C141.805 440.708 142.257 440.841 142.668 441.062C143.079 441.282 143.441 441.584 143.73 441.95C144.346 442.676 144.726 443.573 144.82 444.52C144.897 445.496 144.763 446.476 144.429 447.396C144.094 448.315 143.566 449.152 142.88 449.85C141.455 451.357 139.534 452.298 137.47 452.5C135.345 452.704 133.201 452.438 131.19 451.72C129.041 451.048 127.134 449.766 125.7 448.03C124.96 447.098 124.515 445.966 124.42 444.78C124.36 444.163 124.437 443.541 124.644 442.957C124.851 442.373 125.185 441.841 125.62 441.4C126.097 440.942 126.72 440.669 127.38 440.63C128.032 440.612 128.674 440.794 129.22 441.15C130.275 441.841 131.018 442.918 131.29 444.15C131.525 445.353 131.445 446.596 131.056 447.758C130.666 448.92 129.982 449.962 129.07 450.78C127.283 452.289 125.063 453.192 122.73 453.36C120.519 453.614 118.279 453.393 116.16 452.71C114.08 452.056 112.306 450.675 111.16 448.82C110.59 447.94 110.237 446.937 110.129 445.895C110.022 444.852 110.162 443.798 110.54 442.82C110.727 442.33 111.035 441.895 111.436 441.556C111.836 441.216 112.316 440.984 112.83 440.88C113.325 440.791 113.832 440.806 114.321 440.923C114.81 441.04 115.269 441.257 115.67 441.56C116.372 442.176 116.874 442.988 117.113 443.891C117.352 444.794 117.316 445.747 117.01 446.63C116.463 448.206 115.478 449.594 114.17 450.63C112.004 452.465 109.286 453.521 106.45 453.63C104.724 453.691 103.004 453.389 101.402 452.743C99.7995 452.097 98.351 451.122 97.15 449.88C96.9096 449.632 96.6826 449.372 96.47 449.1C96.395 449.009 96.328 448.912 96.27 448.81C97.4587 450.122 98.8791 451.203 100.46 452C102.323 452.915 104.387 453.342 106.46 453.24C109.196 453.085 111.805 452.03 113.88 450.24C115.098 449.254 116.013 447.943 116.52 446.46C116.785 445.687 116.815 444.853 116.607 444.063C116.399 443.273 115.961 442.562 115.35 442.02C115.014 441.77 114.631 441.591 114.223 441.495C113.815 441.399 113.392 441.387 112.98 441.46C112.562 441.547 112.173 441.739 111.851 442.019C111.529 442.3 111.284 442.658 111.14 443.06C110.811 443.943 110.695 444.892 110.801 445.828C110.907 446.764 111.232 447.663 111.75 448.45C112.824 450.164 114.478 451.434 116.41 452.03C118.437 452.673 120.578 452.878 122.69 452.63C124.873 452.468 126.951 451.625 128.63 450.22C129.454 449.478 130.071 448.536 130.422 447.484C130.772 446.432 130.844 445.308 130.63 444.22C130.405 443.162 129.777 442.234 128.88 441.63C128.475 441.331 127.979 441.183 127.476 441.212C126.974 441.241 126.497 441.446 126.13 441.79C125.766 442.158 125.488 442.601 125.315 443.089C125.143 443.576 125.079 444.095 125.13 444.61C125.214 445.661 125.607 446.663 126.26 447.49C127.608 449.117 129.396 450.322 131.41 450.96C133.33 451.651 135.378 451.914 137.41 451.73C139.312 451.547 141.086 450.688 142.41 449.31C143.041 448.678 143.529 447.918 143.842 447.082C144.154 446.245 144.283 445.351 144.22 444.46C144.186 443.651 143.879 442.877 143.349 442.265C142.818 441.653 142.096 441.239 141.3 441.09C140.929 441.078 140.561 441.151 140.223 441.304C139.885 441.456 139.586 441.684 139.35 441.97C138.862 442.539 138.541 443.231 138.42 443.97C138.215 445.37 138.54 446.796 139.33 447.97C140.023 449.038 140.968 449.92 142.08 450.54C143.928 451.488 146.03 451.821 148.08 451.49C149.377 451.313 150.652 450.994 151.88 450.54C152.72 450.33 153.15 450.14 153.16 450.17Z" fill="#FAFAFA"/>
<path d="M101.17 413.23V439.33H152.44V413.23H101.17Z" fill="#EBEBEB"/>
<path d="M109.69 414.13C109.88 414.13 110.04 419.78 110.04 426.76C110.04 433.74 109.88 439.39 109.69 439.39C109.5 439.39 109.33 433.74 109.33 426.76C109.33 419.78 109.49 414.13 109.69 414.13Z" fill="#E0E0E0"/>
<path d="M113.58 413.8C113.77 413.8 113.93 419.39 113.93 426.27C113.93 433.15 113.77 438.74 113.58 438.74C113.39 438.74 113.22 433.16 113.22 426.27C113.22 419.38 113.38 413.8 113.58 413.8Z" fill="#E0E0E0"/>
<path d="M146.65 413C146.84 413 147 418.88 147 426.14C147 433.4 146.84 439.27 146.65 439.27C146.46 439.27 146.29 433.39 146.29 426.14C146.29 418.89 146.45 413 146.65 413Z" fill="#E0E0E0"/>
<path d="M142.08 413.32C142.27 413.32 142.43 419.04 142.43 426.11C142.43 433.18 142.27 438.9 142.08 438.9C141.89 438.9 141.72 433.18 141.72 426.11C141.72 419.04 141.88 413.32 142.08 413.32Z" fill="#E0E0E0"/>
<path d="M418.07 356.26C423.39 353.51 429.64 353.16 435.55 354.13C438.72 354.66 442.02 355.6 444.18 357.99C446.34 360.38 446.74 364.56 444.27 366.6C442.79 367.82 440.74 368.01 438.82 367.98C434.2 367.93 429.08 367.12 425.39 369.9C423.28 371.48 421.88 374.12 419.39 374.9C416.9 375.68 414.15 374.21 412.85 371.99C411.648 369.675 411.383 366.986 412.11 364.48C412.404 362.744 413.095 361.099 414.129 359.673C415.162 358.248 416.511 357.08 418.07 356.26Z" fill="#EBEBEB"/>
<path d="M405.89 332.75C409.14 337.39 415.46 335.85 418.39 333.02C421.32 330.19 422.56 326.08 423.68 322.16C426.26 313.22 428.85 303.83 426.94 294.72C426.482 291.957 425.267 289.374 423.43 287.26C422.501 286.218 421.315 285.437 419.99 284.994C418.666 284.552 417.249 284.465 415.88 284.74C412.7 285.59 410.72 288.74 409.29 291.67C405.076 300.434 402.866 310.026 402.82 319.75C402.82 324.27 403.34 329.01 405.89 332.75Z" fill="#EBEBEB"/>
<path d="M397 339.41C400.53 335.22 401.2 329.11 399.63 323.87C398.06 318.63 394.51 314.15 390.42 310.51C385.608 306.226 380.007 302.921 373.93 300.78C371.579 299.833 369.052 299.404 366.52 299.52C365.254 299.593 364.026 299.975 362.941 300.632C361.857 301.289 360.95 302.202 360.3 303.29C358.56 306.6 360.23 310.61 362.03 313.89C365.202 319.657 368.82 325.167 372.85 330.37C376.1 334.56 379.85 338.69 384.76 340.58C389.67 342.47 394.85 342.24 397.47 338.81" fill="#EBEBEB"/>
<path d="M405.67 402.77C405.841 402.079 405.942 401.372 405.97 400.66C406.12 399.13 406.3 397.2 406.53 394.91C406.816 392.073 407.247 389.253 407.82 386.46C408.572 383.049 409.599 379.705 410.89 376.46C412.157 373.236 413.87 370.207 415.98 367.46C417.699 365.221 419.896 363.393 422.41 362.11C424.118 361.271 425.947 360.701 427.83 360.42C428.539 360.398 429.243 360.297 429.93 360.12C429.218 360.042 428.501 360.042 427.79 360.12C425.834 360.269 423.92 360.767 422.14 361.59C419.495 362.841 417.175 364.685 415.36 366.98C413.154 369.768 411.374 372.869 410.08 376.18C408.788 379.463 407.784 382.853 407.08 386.31C406.535 389.135 406.158 391.99 405.95 394.86C405.77 397.3 405.7 399.28 405.67 400.65C405.595 401.355 405.595 402.065 405.67 402.77Z" fill="#E0E0E0"/>
<path d="M406.07 398.34C406.13 398.01 406.15 397.675 406.13 397.34C406.13 396.61 406.13 395.68 406.13 394.54C406.13 392.12 406.13 388.6 406.25 384.26C406.47 375.58 407.25 366.26 408.66 353.06C410.03 340.68 411.86 326.26 413.8 316.89C414.21 314.76 414.63 312.84 415.03 311.16C415.43 309.48 415.72 308.03 416.03 306.86C416.34 305.69 416.51 304.86 416.68 304.14C416.77 303.813 416.83 303.478 416.86 303.14C416.707 303.431 416.593 303.74 416.52 304.06C416.3 304.76 416.03 305.65 415.7 306.74C415.37 307.83 414.97 309.34 414.55 311.02C414.13 312.7 413.65 314.61 413.2 316.74C410.798 327.822 408.992 339.025 407.79 350.3C406.35 363.5 405.7 375.52 405.64 384.22C405.59 388.57 405.64 392.09 405.79 394.52C405.86 395.66 405.92 396.59 405.96 397.32C405.954 397.663 405.991 398.006 406.07 398.34Z" fill="#E0E0E0"/>
<path d="M406.13 375.16C406.206 374.188 406.206 373.212 406.13 372.24C406.02 370.36 405.76 367.64 405.23 364.32C404.592 360.428 403.734 356.575 402.66 352.78C401.399 348.111 399.784 343.544 397.83 339.12C394.484 330.965 389.682 323.487 383.66 317.05C382.609 315.951 381.494 314.915 380.32 313.95C379.81 313.52 379.32 313.09 378.9 312.75L377.61 311.86C376.831 311.266 376.005 310.738 375.14 310.28C375 310.47 378.63 312.6 383.21 317.48C389.035 323.973 393.709 331.413 397.03 339.48C398.94 343.874 400.554 348.39 401.86 353C403.13 357.24 403.97 361.14 404.61 364.42C405.25 367.7 405.56 370.42 405.77 372.27C405.812 373.241 405.932 374.208 406.13 375.16Z" fill="#E0E0E0"/>
<path d="M382.17 412.53L384.5 444.35H425.37L427.7 412.53H382.17Z" fill="#EBEBEB"/>
<path d="M432.57 399.99H378.22V412.53H432.57V399.99Z" fill="#EBEBEB"/>
<path d="M378.22 443.13V446.61H380.78H431.68V443.13H378.22Z" fill="#E0E0E0"/>
<path d="M383.28 452.34L380.78 446.23H429.73L426.81 452.34H383.28Z" fill="#E0E0E0"/>
<path d="M426.94 422.93C426.889 423.035 426.826 423.132 426.75 423.22C426.58 423.44 426.38 423.7 426.14 424.03L423.75 427.08L423.65 427.22L423.55 427.07C422.05 425 420.05 422.24 417.7 418.98H418L412.24 427.14L412.06 427.39L411.86 427.15L405.06 419H405.45L405.08 419.47L399 427.15L398.79 427.41L398.61 427.14C396.53 424.21 394.61 421.46 392.84 418.99H393.18L386.08 427.08L385.96 427.22L385.86 427.06L383.64 423.33C383.4 422.92 383.22 422.59 383.07 422.33C382.996 422.221 382.935 422.104 382.89 421.98C382.982 422.073 383.062 422.177 383.13 422.29L383.76 423.29L386.09 426.96H385.87L392.87 418.77L393.04 418.57L393.2 418.79L399.02 426.91H398.62L404.72 419.24L405.09 418.76L405.29 418.52L405.49 418.76L412.3 426.9H411.92L417.74 418.78L417.91 418.54L418.07 418.78L423.8 426.96H423.59C424.64 425.7 425.46 424.71 426.07 423.96L426.73 423.19C426.85 423 426.93 422.92 426.94 422.93Z" fill="#F5F5F5"/>
<path d="M428.27 412.32C428.27 412.46 418.02 412.57 405.39 412.57C392.76 412.57 382.51 412.46 382.51 412.32C382.51 412.18 392.75 412.07 405.39 412.07C418.03 412.07 428.27 412.18 428.27 412.32Z" fill="#F5F5F5"/>
<path d="M195.21 80.84C195.21 80.84 195.12 80.84 194.97 80.77L194.31 80.51L191.79 79.46L182.54 75.46L152.14 62.22L151.08 61.75H151.3L121.51 74.54L112.51 78.32L110.05 79.32C109.769 79.4487 109.478 79.5525 109.18 79.63C109.445 79.4718 109.723 79.3347 110.01 79.22L112.43 78.12L121.43 74.17L151.15 61.28H151.26H151.37L152.43 61.74L182.77 75.14L191.94 79.25L194.42 80.4L195.06 80.71C195.115 80.7474 195.165 80.791 195.21 80.84Z" fill="#E0E0E0"/>
<path d="M242.63 76.48H47.3398V222.71H242.63V76.48Z" fill="#E0E0E0"/>
<path d="M236.54 83.28H54.1699V216.7H236.54V83.28Z" fill="#FAFAFA"/>
<path d="M94.4497 141.57C94.4497 141.57 94.6397 163.96 95.7797 170.8L123.87 169.47C123.87 169.47 121.41 147.47 122.36 141.57H94.4497Z" fill="#E0E0E0"/>
<path d="M108.29 144.73H108.7C109.091 144.716 109.483 144.736 109.87 144.79C110.485 144.881 111.085 145.06 111.65 145.32C112.398 145.691 113.059 146.215 113.59 146.86C114.242 147.644 114.704 148.568 114.94 149.56C115.16 150.722 115.059 151.921 114.65 153.03C114.441 153.633 114.176 154.216 113.86 154.77C113.524 155.334 113.224 155.919 112.96 156.52C112.4 157.795 112.016 159.141 111.82 160.52V160.61H111.73H108.96H106.05H105.94V160.51C105.815 159.138 105.351 157.818 104.59 156.67C104.25 156.09 103.88 155.56 103.59 155.01C103.227 154.492 102.893 153.955 102.59 153.4C102.077 152.338 101.923 151.138 102.15 149.98C102.313 148.981 102.685 148.027 103.24 147.18C103.714 146.5 104.336 145.935 105.06 145.53C105.953 145.056 106.933 144.767 107.94 144.68H108.34C108.34 144.68 108.34 144.68 108.24 144.68H107.94C107.558 144.725 107.181 144.799 106.81 144.9C106.219 145.054 105.65 145.286 105.12 145.59C104.412 145.99 103.807 146.548 103.35 147.22C102.833 148.059 102.493 148.995 102.35 149.97C102.132 151.092 102.286 152.254 102.79 153.28C103.096 153.827 103.43 154.357 103.79 154.87C104.14 155.4 104.51 155.95 104.85 156.53C105.639 157.705 106.118 159.06 106.24 160.47L106.13 160.36H109.04H111.82L111.71 160.46C111.91 159.063 112.3 157.701 112.87 156.41C113.144 155.804 113.452 155.213 113.79 154.64C114.101 154.098 114.362 153.529 114.57 152.94C114.975 151.865 115.082 150.701 114.88 149.57C114.652 148.602 114.211 147.697 113.59 146.92C113.074 146.283 112.43 145.762 111.7 145.39C111.147 145.122 110.557 144.937 109.95 144.84C109.569 144.782 109.185 144.748 108.8 144.74H108.49C108.33 144.74 108.29 144.74 108.29 144.73Z" fill="white"/>
<path d="M109.73 160.34C109.728 160.31 109.728 160.28 109.73 160.25V159.99C109.73 159.76 109.64 159.42 109.58 158.99C109.45 158.11 109.26 156.85 109.14 155.28C109.14 154.89 109.08 154.48 109.07 154.05C109.044 153.6 109.044 153.15 109.07 152.7C109.08 152.218 109.186 151.742 109.38 151.3C109.596 150.823 109.98 150.442 110.46 150.23C110.715 150.123 110.996 150.093 111.268 150.145C111.54 150.196 111.791 150.327 111.99 150.52C112.095 150.618 112.179 150.737 112.234 150.87C112.289 151.003 112.315 151.146 112.31 151.29C112.304 151.58 112.206 151.86 112.03 152.09C111.849 152.324 111.616 152.512 111.35 152.64C111.085 152.764 110.807 152.855 110.52 152.91C109.348 153.15 108.145 153.19 106.96 153.03C106.667 152.99 106.38 152.909 106.11 152.79C105.846 152.671 105.608 152.501 105.41 152.29C105.207 152.078 105.065 151.816 105 151.53C104.937 151.25 104.972 150.957 105.1 150.7C105.215 150.441 105.427 150.237 105.69 150.13C105.814 150.076 105.949 150.049 106.085 150.049C106.22 150.049 106.355 150.076 106.48 150.13C106.721 150.24 106.928 150.412 107.08 150.63C107.221 150.844 107.322 151.081 107.38 151.33C107.464 151.806 107.511 152.287 107.52 152.77L107.66 155.34C107.73 156.91 107.8 158.18 107.84 159.07C107.84 159.5 107.84 159.84 107.84 160.07V160.42C107.842 160.39 107.842 160.36 107.84 160.33C107.84 160.27 107.84 160.18 107.84 160.07C107.84 159.96 107.84 159.49 107.78 159.07C107.78 158.18 107.65 156.91 107.56 155.34C107.56 154.56 107.47 153.7 107.42 152.77C107.413 152.293 107.363 151.818 107.27 151.35C107.221 151.111 107.126 150.883 106.99 150.68C106.841 150.476 106.646 150.312 106.42 150.2C106.304 150.151 106.18 150.125 106.055 150.125C105.929 150.125 105.805 150.151 105.69 150.2C105.446 150.301 105.25 150.491 105.14 150.73C105.025 150.973 104.993 151.247 105.05 151.51C105.117 151.776 105.251 152.02 105.44 152.22C105.846 152.62 106.373 152.874 106.94 152.94C107.526 153.017 108.118 153.044 108.71 153.02C109.301 153.005 109.89 152.938 110.47 152.82C110.75 152.766 111.023 152.676 111.28 152.55C111.533 152.428 111.755 152.25 111.93 152.03C112.095 151.814 112.189 151.552 112.2 151.28C112.199 151.148 112.172 151.017 112.121 150.895C112.069 150.773 111.994 150.663 111.9 150.57C111.712 150.391 111.476 150.269 111.221 150.219C110.965 150.17 110.701 150.194 110.46 150.29C110.016 150.49 109.66 150.846 109.46 151.29C109.269 151.726 109.164 152.194 109.15 152.67C109.15 153.13 109.15 153.57 109.15 154C109.15 154.43 109.15 154.84 109.22 155.24C109.34 156.81 109.52 158.07 109.63 158.94C109.69 159.38 109.74 159.71 109.77 159.94V160.2C109.762 160.248 109.748 160.295 109.73 160.34Z" fill="white"/>
<path d="M106 160.49C106.046 160.798 106.072 161.109 106.08 161.42C106.08 162.087 106.12 162.897 106.2 163.85V163.79L108.1 166H108L110.19 165.88H110.1L111.18 164.56L111.73 163.89V163.98C111.73 162.69 111.67 161.48 111.65 160.38L111.77 160.49H107.68H106C106.129 160.472 106.261 160.472 106.39 160.49L107.54 160.43L111.7 160.27H111.82V160.39C111.82 161.5 111.89 162.71 111.93 163.99V164C111.75 164.22 111.57 164.45 111.38 164.67L110.29 166H110.23L108.04 166.11H108L106.14 163.9C106.14 162.9 106.14 162.1 106.14 161.4C106.075 161.1 106.029 160.796 106 160.49Z" fill="white"/>
<path d="M111.68 163.65C111.68 163.65 111.6 163.65 111.47 163.56C111.284 163.477 111.094 163.403 110.9 163.34C110.258 163.116 109.579 163.014 108.9 163.04C108.213 163.055 107.535 163.197 106.9 163.46L106.35 163.72L106.15 163.82C106.201 163.766 106.262 163.722 106.33 163.69C106.507 163.582 106.691 163.485 106.88 163.4C107.511 163.12 108.19 162.967 108.88 162.95C109.562 162.925 110.242 163.037 110.88 163.28C111.073 163.349 111.26 163.432 111.44 163.53L111.68 163.65Z" fill="white"/>
<path d="M111.67 162.78L111.47 162.69L110.9 162.46C110.256 162.242 109.579 162.14 108.9 162.16C108.214 162.185 107.538 162.327 106.9 162.58C106.66 162.68 106.48 162.77 106.35 162.84L106.15 162.94L106.33 162.81C106.506 162.702 106.689 162.609 106.88 162.53C107.51 162.246 108.189 162.09 108.88 162.07C109.561 162.055 110.24 162.167 110.88 162.4C111.12 162.5 111.31 162.59 111.44 162.66C111.57 162.73 111.68 162.77 111.67 162.78Z" fill="white"/>
<path d="M111.62 161.94L111.42 161.86C111.28 161.8 111.09 161.71 110.85 161.63C110.206 161.412 109.529 161.311 108.85 161.33C108.163 161.344 107.484 161.486 106.85 161.75C106.61 161.85 106.43 161.94 106.3 162.01L106.1 162.11L106.28 161.98C106.456 161.87 106.64 161.773 106.83 161.69C107.462 161.415 108.141 161.262 108.83 161.24C109.511 161.226 110.189 161.337 110.83 161.57C111.022 161.644 111.209 161.73 111.39 161.83C111.473 161.851 111.551 161.889 111.62 161.94Z" fill="white"/>
<path d="M63.1699 105C63.1699 105 63.3599 127.4 64.4999 134.23L92.5899 132.9C92.5899 132.9 90.1199 110.9 91.0699 105H63.1699Z" fill="#EBEBEB"/>
<path d="M86.84 114.36C83.7222 114.822 80.5802 115.102 77.43 115.2C74.2889 115.49 71.1329 115.586 67.98 115.49C71.0985 115.034 74.2401 114.754 77.39 114.65C80.5318 114.372 83.687 114.276 86.84 114.36Z" fill="white"/>
<path d="M86.8397 119.1C83.7227 119.569 80.5805 119.853 77.4297 119.95C74.2912 120.228 71.1394 120.324 67.9897 120.24C71.1075 119.778 74.2494 119.497 77.3997 119.4C80.5379 119.116 83.6899 119.016 86.8397 119.1Z" fill="white"/>
<path d="M82.0701 123.76C80.3082 124.14 78.5124 124.341 76.7101 124.36C74.9214 124.542 73.1188 124.542 71.3301 124.36C73.0887 123.98 74.8811 123.779 76.6801 123.76C78.4721 123.578 80.278 123.578 82.0701 123.76Z" fill="white"/>
<path d="M61.8398 170.85C61.8398 170.85 62.0298 193.24 63.1698 200.08L91.2598 198.75C91.2598 198.75 88.7898 176.75 89.7398 170.85H61.8398Z" fill="#EBEBEB"/>
<path d="M85.5097 180.25C82.3924 180.718 79.2503 181.002 76.0997 181.1C72.9612 181.378 69.8093 181.474 66.6597 181.39C69.774 180.927 72.9127 180.647 76.0597 180.55C79.2012 180.266 82.3565 180.166 85.5097 180.25Z" fill="white"/>
<path d="M85.5097 185C82.392 185.463 79.25 185.743 76.0997 185.84C72.9612 186.118 69.8093 186.214 66.6597 186.13C69.7774 185.668 72.9194 185.387 76.0697 185.29C79.2082 185.012 82.36 184.916 85.5097 185Z" fill="white"/>
<path d="M80.74 189.66C78.9815 190.039 77.1888 190.237 75.39 190.25C73.5996 190.449 71.7937 190.466 70 190.3C71.7586 189.92 73.551 189.719 75.35 189.7C77.1405 189.501 78.9467 189.488 80.74 189.66Z" fill="white"/>
<path d="M138.61 110.89L141.39 175.49L222.03 176.46L218.41 111.74L138.61 110.89Z" fill="#EBEBEB"/>
<path d="M217.78 110.43H137.67V170.92H217.78V110.43Z" fill="#F5F5F5"/>
<path d="M217.78 170.92C217.78 170.92 217.78 170.53 217.78 169.79C217.78 169.05 217.78 167.97 217.78 166.57C217.78 163.73 217.78 159.57 217.72 154.33C217.72 143.78 217.65 128.69 217.6 110.43L217.83 110.65H137.73L138.01 110.38C138.01 132.13 138.01 152.73 138.01 170.87L137.76 170.62L195.54 170.74L211.98 170.81H216.35H217.48H217.87H216.4L212 171L195.63 171.07L137.63 171.19H137.38V170.95C137.38 152.81 137.38 132.21 137.38 110.46V110.18H137.66H217.76H218V110.41C218 128.72 217.91 143.87 217.88 154.41C217.88 159.66 217.88 163.77 217.82 166.6C217.82 167.98 217.82 169.04 217.82 169.78C217.8 170.56 217.78 170.92 217.78 170.92Z" fill="#E0E0E0"/>
<path d="M179.81 123.24H147.34V164.11H179.81V123.24Z" fill="#F5F5F5"/>
<path d="M179.81 164.11C179.799 164.04 179.799 163.97 179.81 163.9V163.32C179.81 162.78 179.81 162.04 179.81 161.09C179.81 159.09 179.81 156.28 179.75 152.7C179.75 145.51 179.67 135.33 179.62 123.24L179.87 123.49H147.4C147.33 123.49 147.92 122.97 147.67 123.22V134.33C147.67 137.96 147.67 141.5 147.67 144.93C147.67 151.8 147.67 158.23 147.67 164.07L147.45 163.84L170.96 163.96L177.55 164.02H179.3H179.92C179.73 164.034 179.54 164.034 179.35 164.02H177.65L171.1 164.08L147.45 164.2H147.22V163.97C147.22 158.13 147.22 151.7 147.22 144.83C147.22 141.4 147.22 137.83 147.22 134.23V123.26C146.97 123.5 147.55 122.91 147.5 122.98H179.97H180.22V123.23C180.17 135.38 180.12 145.62 180.09 152.85L180.03 161.18C180.03 162.113 180.03 162.843 180.03 163.37C180.03 163.59 180.03 163.77 180.03 163.92C179.965 163.992 179.891 164.056 179.81 164.11Z" fill="#E0E0E0"/>
<path d="M210.81 113.89H148.58V119.78H210.81V113.89Z" fill="#F5F5F5"/>
<path d="M210.81 119.78C210.81 119.78 210.81 119.63 210.81 119.38C210.81 119.13 210.81 118.71 210.81 118.23C210.81 117.23 210.81 115.76 210.74 113.89L210.85 114C200.36 114.1 176.44 114.17 148.62 114.17C149.17 113.61 148.77 114.01 148.9 113.89V119.76L148.63 119.48L192.74 119.6L205.98 119.68H209.58H210.53C210.64 119.672 210.75 119.672 210.86 119.68H210.57H209.66H206.12L192.94 119.77L148.63 119.88H148.36V119.61C148.36 118.67 148.36 117.7 148.36 116.72V113.72L148.64 113.44C176.46 113.44 200.38 113.51 210.87 113.61H210.99V113.72C210.99 115.61 210.99 117.09 210.93 118.13C210.93 118.6 210.93 118.96 210.93 119.24C210.922 119.426 210.881 119.608 210.81 119.78Z" fill="#E0E0E0"/>
<path d="M210.81 123.24H183.78V147.87H210.81V123.24Z" fill="#F5F5F5"/>
<path d="M210.81 147.87C210.81 147.87 210.81 147.7 210.81 147.4V146.06C210.81 144.86 210.81 143.17 210.75 141.06C210.75 136.72 210.68 130.61 210.63 123.26L210.86 123.5H183.86L184.13 123.23V129.84C184.13 132 184.13 134.12 184.13 136.19C184.13 140.32 184.13 144.19 184.13 147.85L183.88 147.61L203.38 147.73L208.91 147.8H210.39C210.563 147.785 210.737 147.785 210.91 147.8C210.754 147.814 210.596 147.814 210.44 147.8H209.01L203.54 147.86L183.88 147.98H183.64V147.73C183.64 144.12 183.64 140.2 183.64 136.07C183.64 134 183.64 131.88 183.64 129.72V123.11C183.39 123.35 183.97 122.77 183.92 122.83H210.92H211.16V123.06C211.11 130.47 211.07 136.64 211.04 141.06C211.04 143.16 210.99 144.83 210.98 146.06C210.98 146.587 210.98 147.017 210.98 147.35C210.947 147.53 210.89 147.705 210.81 147.87Z" fill="#E0E0E0"/>
<path d="M210.81 151.73H183.78V164.11H210.81V151.73Z" fill="#F5F5F5"/>
<path d="M210.81 164.11C210.81 164.11 210.81 163.79 210.81 163.21L210.76 160.73C210.76 158.54 210.7 155.49 210.65 151.73L210.85 151.93L183.85 152.01C183.6 152.26 184.18 151.67 184.12 151.74V158.11C184.12 160.18 184.12 162.19 184.12 164.11L183.85 163.85L203.18 163.97L208.82 164.05H210.34H210.88C210.72 164.065 210.559 164.065 210.4 164.05H208.93L203.36 164.13L183.85 164.25H183.59V163.99C183.59 162.07 183.59 160.06 183.59 157.99V151.62C183.53 151.62 184.11 151.09 183.87 151.34L210.87 151.41H211V151.61C211 155.42 210.92 158.52 210.9 160.73C210.9 161.73 210.9 162.56 210.9 163.17C210.9 163.485 210.87 163.8 210.81 164.11Z" fill="#E0E0E0"/>
<path d="M179 123.31C168.94 137.2 157.38 150.22 147.33 164.11L179 123.31Z" fill="white"/>
<path d="M147.34 164.11C147.34 164.11 147.41 163.94 147.6 163.65L148.45 162.41C149.19 161.33 150.3 159.8 151.7 157.93C154.49 154.17 158.48 149.09 162.96 143.54C167.44 137.99 171.47 132.95 174.33 129.26L177.72 124.89L178.65 123.7C178.87 123.44 178.99 123.3 179.01 123.31C178.937 123.473 178.847 123.627 178.74 123.77L177.89 125.01C177.15 126.09 176.04 127.62 174.64 129.5C171.85 133.25 167.86 138.33 163.38 143.88C158.9 149.43 154.88 154.47 152.01 158.16L148.62 162.54L147.69 163.72C147.589 163.863 147.471 163.994 147.34 164.11Z" fill="#E0E0E0"/>
<path d="M179.81 164.11C179.69 164.2 172.32 155.11 163.36 143.85C154.4 132.59 147.22 123.34 147.36 123.24C147.5 123.14 154.84 132.24 163.81 143.51C172.78 154.78 179.93 164 179.81 164.11Z" fill="#E0E0E0"/>
<path d="M141.39 123.33C141.39 124.335 141.092 125.317 140.534 126.152C139.976 126.988 139.182 127.639 138.254 128.023C137.326 128.408 136.304 128.508 135.319 128.312C134.333 128.116 133.428 127.633 132.718 126.922C132.007 126.212 131.524 125.306 131.328 124.321C131.132 123.336 131.232 122.314 131.617 121.386C132.001 120.458 132.652 119.664 133.488 119.106C134.323 118.548 135.305 118.25 136.31 118.25C137.656 118.253 138.947 118.789 139.899 119.741C140.851 120.693 141.387 121.984 141.39 123.33Z" fill="#E0E0E0"/>
<path d="M224.48 111C224.48 112.005 224.182 112.987 223.624 113.822C223.065 114.658 222.272 115.309 221.344 115.693C220.416 116.078 219.394 116.178 218.409 115.982C217.423 115.786 216.518 115.303 215.808 114.592C215.097 113.882 214.613 112.976 214.417 111.991C214.221 111.006 214.322 109.984 214.707 109.056C215.091 108.128 215.742 107.334 216.578 106.776C217.413 106.218 218.395 105.92 219.4 105.92C220.746 105.923 222.037 106.459 222.989 107.411C223.941 108.363 224.477 109.653 224.48 111Z" fill="#E0E0E0"/>
<path d="M423.2 146.38H364.66V231.24H423.2V146.38Z" fill="#E0E0E0"/>
<path d="M420.27 146.38H361.73V231.24H420.27V146.38Z" fill="#F5F5F5"/>
<path d="M413 155.57H369V222.05H413V155.57Z" fill="white"/>
<path d="M413 222.05C413 222.05 413 221.93 413 221.72C413 221.51 413 221.19 413 220.78C413 219.94 413 218.72 413 217.13C413 213.95 413 209.3 413 203.44C413 191.72 413 175.12 412.93 155.57L413.08 155.72H369L369.16 155.56C369.16 180.64 369.16 203.76 369.16 222.04L369.03 221.91L401.03 221.98H409.88H412.2H413.01H412.23H409.93H401.11L369.01 222.04H368.88V221.92C368.88 203.64 368.88 180.52 368.88 155.44V155.28H369H413H413.14V155.42C413.14 175.01 413.09 191.64 413.07 203.42C413.07 209.27 413.07 213.9 413.07 217.08C413.07 218.65 413.07 219.86 413.07 220.69C413.07 221.1 413.07 221.4 413.07 221.62L413 222.05Z" fill="#E0E0E0"/>
<path d="M420.43 146.38C420.148 146.919 419.813 147.428 419.43 147.9C418.75 148.81 417.78 150.04 416.68 151.38C415.58 152.72 414.55 153.9 413.79 154.75C413.402 155.226 412.97 155.665 412.5 156.06C412.834 155.544 413.208 155.056 413.62 154.6L416.44 151.18L419.25 147.76C419.609 147.272 420.003 146.811 420.43 146.38Z" fill="#E0E0E0"/>
<path d="M413.22 221.83C415.404 225.311 417.977 228.531 420.89 231.43L413.22 221.83Z" fill="white"/>
<path d="M420.89 231.43C420.403 231.074 419.957 230.665 419.56 230.21C418.537 229.174 417.569 228.086 416.66 226.95C415.751 225.814 414.9 224.632 414.11 223.41C413.758 222.917 413.459 222.387 413.22 221.83C413.613 222.288 413.974 222.772 414.3 223.28C414.94 224.19 415.85 225.42 416.91 226.75C417.97 228.08 418.98 229.23 419.72 230.06C420.145 230.486 420.536 230.944 420.89 231.43Z" fill="#E0E0E0"/>
<path d="M361.72 231.17L369.39 221.71L361.72 231.17Z" fill="white"/>
<path d="M369.39 221.71C369.45 221.71 367.79 223.93 365.68 226.54C364.429 228.153 363.094 229.698 361.68 231.17C364.069 227.884 366.629 224.727 369.35 221.71H369.39Z" fill="#E0E0E0"/>
<path d="M361.73 146.38C363.044 147.8 364.285 149.285 365.45 150.83C366.692 152.315 367.85 153.867 368.92 155.48C367.602 154.053 366.36 152.558 365.2 151C363.956 149.528 362.797 147.985 361.73 146.38Z" fill="#E0E0E0"/>
<path d="M399.29 169.07H384.56V210.9H399.29V169.07Z" fill="#E0E0E0"/>
<path d="M409.708 56.2119L401.328 56.2572L401.554 97.9566L409.934 97.9113L409.708 56.2119Z" fill="#E0E0E0"/>
<path d="M350.43 56.3228L328.73 56.4402L328.855 79.4599L350.554 79.3425L350.43 56.3228Z" fill="#EBEBEB"/>
<path d="M372.019 56.216L350.319 56.3334L350.444 79.3531L372.144 79.2357L372.019 56.216Z" fill="#F5F5F5"/>
<path d="M328.76 62.82C343.18 62.94 357.64 62.82 372.06 62.62C372.121 62.62 372.18 62.5958 372.223 62.5527C372.266 62.5095 372.29 62.451 372.29 62.39C372.29 62.329 372.266 62.2705 372.223 62.2274C372.18 62.1843 372.121 62.16 372.06 62.16C357.627 62.08 343.193 62.1667 328.76 62.42C328.707 62.42 328.656 62.4411 328.619 62.4786C328.581 62.5161 328.56 62.567 328.56 62.62C328.56 62.6731 328.581 62.7239 328.619 62.7614C328.656 62.799 328.707 62.82 328.76 62.82Z" fill="#E0E0E0"/>
<path d="M354.623 78.9699L315.193 79.1832L315.295 97.943L354.724 97.7296L354.623 78.9699Z" fill="#EBEBEB"/>
<path d="M393.871 78.7576L354.441 78.9709L354.543 97.7306L393.972 97.5173L393.871 78.7576Z" fill="#F5F5F5"/>
<path d="M315.22 84.41C341.42 84.71 367.7 84.41 393.89 84.02C393.951 84.02 394.01 83.9958 394.053 83.9527C394.096 83.9095 394.12 83.851 394.12 83.79C394.12 83.729 394.096 83.6705 394.053 83.6274C394.01 83.5843 393.951 83.56 393.89 83.56C367.69 83.42 341.41 83.44 315.22 84.01C315.167 84.01 315.116 84.0311 315.079 84.0686C315.041 84.1061 315.02 84.157 315.02 84.21C315.02 84.2631 315.041 84.314 315.079 84.3515C315.116 84.389 315.167 84.41 315.22 84.41Z" fill="#E0E0E0"/>
<path d="M453.24 97.95H300.48V104.67H453.24V97.95Z" fill="#E0E0E0"/>
<path d="M331.69 101.18H325.49V124.11H331.69V101.18Z" fill="#E0E0E0"/>
<path d="M424.26 101.18H418.06V124.11H424.26V101.18Z" fill="#E0E0E0"/>
<path d="M417.884 40.6676L409.504 40.713L409.814 98.0621L418.194 98.0168L417.884 40.6676Z" fill="#EBEBEB"/>
<path d="M430.982 51.3468L417.962 51.4172L418.213 97.8966L431.233 97.8261L430.982 51.3468Z" fill="#F5F5F5"/>
<path d="M430.89 60.31C426.562 60.6157 422.218 60.6157 417.89 60.31C422.218 60.0176 426.561 60.0176 430.89 60.31Z" fill="#E0E0E0"/>
<path d="M430.89 58.36C426.562 58.6657 422.218 58.6657 417.89 58.36C422.218 58.0676 426.561 58.0676 430.89 58.36Z" fill="#E0E0E0"/>
<path d="M430.89 90.84C426.562 91.1457 422.218 91.1457 417.89 90.84C422.218 90.5476 426.561 90.5476 430.89 90.84Z" fill="#E0E0E0"/>
<path d="M430.89 88.89C426.562 89.1957 422.218 89.1957 417.89 88.89C422.218 88.5975 426.561 88.5975 430.89 88.89Z" fill="#E0E0E0"/>
<path d="M424.59 84.63C424.46 84.63 424.36 79.94 424.36 74.16C424.36 68.38 424.46 63.69 424.59 63.69C424.72 63.69 424.81 68.38 424.81 74.16C424.81 79.94 424.71 84.63 424.59 84.63Z" fill="#E0E0E0"/>
<path d="M445.2 62.77H431.03V97.85H445.2V62.77Z" fill="#EBEBEB"/>
<path d="M438.52 88.76C438.098 88.7846 437.676 88.7197 437.281 88.5698C436.885 88.4198 436.527 88.1881 436.227 87.8897C435.928 87.5914 435.695 87.2332 435.544 86.8386C435.393 86.444 435.327 86.0219 435.35 85.6C435.327 85.1401 435.42 84.6819 435.621 84.2677C435.822 83.8535 436.124 83.4966 436.5 83.23L436.82 83.68C436.519 83.8993 436.277 84.1891 436.115 84.5239C435.953 84.8587 435.876 85.2282 435.89 85.6C435.89 86.2975 436.167 86.9665 436.66 87.4597C437.153 87.9529 437.822 88.23 438.52 88.23C439.217 88.23 439.886 87.9529 440.379 87.4597C440.873 86.9665 441.15 86.2975 441.15 85.6C441.165 85.2271 441.086 84.8564 440.922 84.5212C440.758 84.186 440.513 83.897 440.21 83.68L440.54 83.23C440.911 83.5002 441.209 83.8581 441.408 84.2716C441.607 84.6852 441.7 85.1415 441.68 85.6C441.703 86.021 441.637 86.4422 441.486 86.8361C441.336 87.2299 441.104 87.5876 440.806 87.8858C440.507 88.184 440.15 88.4159 439.756 88.5666C439.362 88.7172 438.941 88.7831 438.52 88.76Z" fill="#FAFAFA"/>
<path d="M440.88 82.36L440.41 82.09C440.901 81.4433 441.165 80.6522 441.16 79.84C441.16 78.53 440.69 78 439.99 78C438.17 78 439.51 82.14 437.06 82.14C436.12 82.14 435.35 81.35 435.35 79.77C435.337 79.0121 435.55 78.2675 435.96 77.63L436.44 77.91C436.063 78.4598 435.867 79.1136 435.88 79.78C435.88 81 436.38 81.54 437.05 81.54C438.92 81.54 437.6 77.4 439.98 77.4C440.98 77.4 441.68 78.28 441.68 79.87C441.71 80.7677 441.427 81.648 440.88 82.36Z" fill="#FAFAFA"/>
<path d="M440.88 76.65L440.41 76.38C440.901 75.7333 441.165 74.9422 441.16 74.13C441.16 72.82 440.69 72.29 439.99 72.29C438.17 72.29 439.51 76.42 437.06 76.42C436.12 76.42 435.35 75.64 435.35 74.06C435.337 73.3021 435.55 72.5575 435.96 71.92L436.44 72.19C436.064 72.744 435.868 73.4006 435.88 74.07C435.88 75.29 436.38 75.83 437.05 75.83C438.92 75.83 437.6 71.69 439.98 71.69C440.98 71.69 441.68 72.56 441.68 74.15C441.711 75.051 441.429 75.9349 440.88 76.65Z" fill="#FAFAFA"/>
<path d="M413.57 52.89C414.901 52.89 415.98 51.811 415.98 50.48C415.98 49.149 414.901 48.07 413.57 48.07C412.239 48.07 411.16 49.149 411.16 50.48C411.16 51.811 412.239 52.89 413.57 52.89Z" fill="#E0E0E0"/>
<path d="M414.31 57.1H412.82V91.22H414.31V57.1Z" fill="#E0E0E0"/>
<path d="M470.81 454C470.81 454.14 374.22 454.26 255.1 454.26C135.98 454.26 39.3701 454.16 39.3701 454C39.3701 453.84 135.94 453.74 255.1 453.74C374.26 453.74 470.81 453.88 470.81 454Z" fill="#263238"/>
<path d="M156.18 110.24C140.13 135.48 141.18 170.48 158.72 194.71C170.41 210.87 187.94 221.71 201.86 235.97C215.78 250.23 226.36 271.28 219.01 289.82C211.53 308.69 189.62 316.36 173.22 328.32C155.126 341.499 142.842 361.177 138.948 383.221C135.055 405.265 139.855 427.96 152.34 446.54H322.76C322.76 446.54 352.7 389.49 314.21 346C275.72 302.51 255.05 301.81 256.47 273.29C257.89 244.77 277.85 235.52 289.26 224.82C300.67 214.12 356.26 189.19 323.47 110.23L156.18 110.24Z" fill="#FAFAFA"/>
<path d="M156.18 110.24H159.11H167.75H201.01L323.47 110.15H323.6V110.27C326.11 116.249 328.248 122.377 330 128.62C331.84 135.156 333.052 141.853 333.62 148.62C334.21 155.693 333.847 162.814 332.54 169.79C331.105 177.022 328.504 183.972 324.84 190.37C322.941 193.633 320.795 196.746 318.42 199.68C315.996 202.654 313.373 205.46 310.57 208.08C307.731 210.748 304.757 213.268 301.66 215.63C298.56 218.03 295.32 220.29 292.16 222.69C290.58 223.88 289.16 225.22 287.62 226.56C286.08 227.9 284.55 229.15 282.97 230.41C279.82 232.93 276.64 235.41 273.64 238.2C267.378 243.627 262.567 250.528 259.64 258.28C258.233 262.256 257.346 266.397 257 270.6C256.91 271.6 256.77 272.7 256.73 273.76C256.69 274.82 256.65 275.88 256.73 276.94C256.753 279.068 256.967 281.19 257.37 283.28C258.163 287.515 259.892 291.519 262.43 295C265.042 298.48 268.001 301.687 271.26 304.57C277.73 310.48 284.6 316.13 291.17 322.23C297.74 328.33 304.17 334.69 310.37 341.42C313.533 344.751 316.492 348.271 319.23 351.96C321.984 355.695 324.378 359.683 326.38 363.87C330.427 372.357 332.913 381.502 333.72 390.87C334.535 400.367 333.976 409.932 332.06 419.27C331.128 423.988 329.906 428.643 328.4 433.21C326.92 437.815 325.115 442.31 323 446.66L322.93 446.8H152.2L152.13 446.69C144.138 434.657 139.237 420.839 137.86 406.46C136.475 392.648 138.501 378.707 143.76 365.86C148.758 353.58 156.455 342.582 166.28 333.68C171.048 329.471 176.196 325.715 181.66 322.46C186.98 319.16 192.35 316.1 197.42 312.76C202.495 309.588 207.157 305.799 211.3 301.48C215.256 297.239 218.191 292.149 219.88 286.6C221.36 281.186 221.593 275.507 220.56 269.99C219.573 264.666 217.797 259.519 215.29 254.72C212.892 250.099 210.016 245.742 206.71 241.72C203.519 237.862 200.049 234.242 196.33 230.89C189.12 224.25 181.73 218.44 175.09 212.47C171.76 209.47 168.61 206.47 165.7 203.4C162.879 200.394 160.279 197.19 157.92 193.81C153.654 187.612 150.366 180.796 148.17 173.6C146.246 167.386 145.13 160.949 144.85 154.45C144.71 152.97 144.77 151.51 144.77 150.08C144.77 148.65 144.77 147.26 144.9 145.91C145.03 144.56 145.1 143.24 145.2 141.91C145.3 140.58 145.57 139.39 145.74 138.18C146.845 130.814 149.099 123.667 152.42 117C152.87 115.969 153.384 114.967 153.96 114L155.19 111.91C155.84 110.8 156.19 110.24 156.19 110.24L155.19 111.94L154 114C153.438 114.971 152.93 115.973 152.48 117C149.189 123.683 146.962 130.839 145.88 138.21C145.71 139.41 145.51 140.65 145.36 141.92C145.21 143.19 145.16 144.52 145.06 145.87C144.96 147.22 144.96 148.61 144.95 150.03C144.94 151.45 144.9 152.91 145.04 154.39C145.329 160.868 146.455 167.281 148.39 173.47C150.583 180.64 153.869 187.43 158.13 193.6C160.484 196.965 163.08 200.154 165.9 203.14C168.8 206.22 171.95 209.22 175.28 212.14C181.92 218.14 189.28 223.89 196.54 230.54C200.288 233.917 203.784 237.563 207 241.45C210.325 245.501 213.217 249.888 215.63 254.54C218.161 259.369 219.954 264.55 220.95 269.91C221.997 275.486 221.765 281.227 220.27 286.7C218.573 292.314 215.611 297.462 211.61 301.75C207.447 306.094 202.765 309.909 197.67 313.11C192.58 316.46 187.21 319.52 181.9 322.82C176.46 326.067 171.331 329.809 166.58 334C156.815 342.856 149.164 353.792 144.19 366C138.962 378.781 136.954 392.651 138.34 406.39C139.717 420.687 144.594 434.425 152.54 446.39L152.34 446.28H322.76L322.53 446.42C324.642 442.081 326.439 437.596 327.91 433C329.408 428.453 330.624 423.817 331.55 419.12C333.458 409.829 334.014 400.31 333.2 390.86C332.409 381.544 329.939 372.447 325.91 364.01C323.923 359.853 321.549 355.892 318.82 352.18C316.088 348.51 313.143 345.004 310 341.68C303.833 334.967 297.443 328.58 290.83 322.52C284.27 316.43 277.42 310.79 270.93 304.85C267.645 301.943 264.66 298.714 262.02 295.21C259.432 291.687 257.659 287.632 256.83 283.34C256.429 281.219 256.212 279.068 256.18 276.91C256.13 275.84 256.18 274.77 256.18 273.7C256.18 272.63 256.36 271.57 256.44 270.51C256.807 266.282 257.714 262.118 259.14 258.12C262.092 250.3 266.949 243.34 273.27 237.87C276.27 235.09 279.48 232.57 282.63 230.06C284.21 228.8 285.76 227.53 287.27 226.23C288.78 224.93 290.27 223.53 291.83 222.33C295.01 219.93 298.24 217.67 301.33 215.28C304.418 212.928 307.385 210.422 310.22 207.77C313.005 205.162 315.614 202.373 318.03 199.42C320.386 196.496 322.522 193.401 324.42 190.16C328.064 183.807 330.651 176.903 332.08 169.72C333.381 162.8 333.747 155.737 333.17 148.72C332.611 141.954 331.409 135.258 329.58 128.72C327.852 122.46 325.741 116.312 323.26 110.31L323.43 110.42L201.04 110.33H167.76H159.1L156.18 110.24Z" fill="#7A7E80"/>
<path d="M316.67 156.53C341.77 160.66 302.2 205.12 279.79 222.66C266.79 232.81 252.89 243.83 246.73 259.11C239.73 276.45 244.92 295.93 241.54 313.37C241.431 313.971 241.099 314.509 240.609 314.876C240.12 315.242 239.511 315.41 238.903 315.345C238.295 315.281 237.734 314.989 237.333 314.528C236.932 314.067 236.72 313.471 236.74 312.86C236.9 301.41 236.6 289.97 234.74 278.7C232.05 262.7 225.91 246.91 214.74 235.2C205.59 225.63 193.6 219.28 183.85 210.34C169.61 197.29 154.98 180.46 153.55 161.2C153.55 161.2 180.89 139.2 196.07 141.95C213.81 145.2 231.27 172.57 258.75 169.44C277.87 167.25 287.56 151.75 316.67 156.53Z" fill="#B8BABB"/>
<path d="M318.9 394.48C318.27 388.2 316.59 381.1 311.02 378.14C307.65 376.34 303.54 376.54 299.84 377.51C296.14 378.48 292.67 380.17 289.01 381.26C281.734 383.399 273.964 383.151 266.84 380.55C260.03 378.05 254.19 373.55 247.84 369.97C241.49 366.39 234.12 363.77 227.08 365.52C214.94 368.52 208.62 383.16 196.62 386.69C191.28 388.25 185.55 387.37 180.13 386.15C174.71 384.93 169.26 383.34 163.71 383.55C159.35 383.71 154.82 385.22 151.77 388.2L151.69 388.29C151.182 388.787 150.72 389.33 150.31 389.91C146.59 394.91 145.99 401.54 147.14 407.6C148.42 414.39 151.59 420.66 154.99 426.67C158.99 433.75 163.55 440.79 170.17 445.51C178.35 451.34 188.62 447.32 198.63 448.11C221.96 449.95 247.06 451.2 270.4 449.4C282.73 448.4 294.28 449.78 304.06 442.21C310.94 436.89 315.42 428.87 317.58 420.45C319.74 412.03 319.77 403.13 318.9 394.48Z" fill="#B8BABB"/>
<g opacity="0.24">
<path d="M274.86 382.46C273.55 384.46 272.98 387.18 274.25 389.22C275.52 391.26 277.25 393.13 277.79 395.48C278.66 399.16 276.44 402.76 274.79 406.17C271.736 412.267 270.583 419.14 271.48 425.9C272.426 432.682 275.928 438.846 281.27 443.13C283.64 444.96 286.72 446.38 289.58 445.48C292.27 444.64 294 441.91 294.58 439.14C295.16 436.37 294.67 433.52 294.32 430.73C292.691 417.727 293.029 404.553 295.32 391.65C295.7 389.5 296.06 387.04 294.7 385.33C293.719 384.334 292.473 383.64 291.11 383.33C285.91 381.6 280.3 383.52 274.91 382.5" fill="black"/>
</g>
<path d="M139.83 454.28C139.83 454.28 139.36 446.46 149.56 442.1H328.81C328.81 442.1 338.16 446.84 339.31 454.1L139.83 454.28Z" fill="#7A7E80"/>
<path d="M325 111.19L324.71 111.32L156.16 110.24C156.16 110.24 155.56 109.86 154.67 109.15C153.619 108.327 152.853 107.195 152.478 105.914C152.103 104.633 152.139 103.267 152.58 102.007C153.021 100.748 153.846 99.6577 154.938 98.8906C156.03 98.1235 157.335 97.7176 158.67 97.73L322.27 99.05C329 99.11 331.12 108.31 325 111.19Z" fill="#7A7E80"/>
<g opacity="0.24">
<path d="M298 175.49C298.34 176.14 297.07 177.49 294.66 179.69C292.25 181.89 288.66 184.78 284.2 188.41C278.845 192.834 273.162 196.846 267.2 200.41C263.496 202.555 259.599 204.346 255.56 205.76C253.371 206.517 251.137 207.135 248.87 207.61C246.489 208.116 244.071 208.43 241.64 208.55C236.713 208.818 231.781 208.139 227.11 206.55C222.98 205.048 219.056 203.032 215.43 200.55C212.07 198.33 209.18 196.13 206.43 194.02C203.68 191.91 201.23 189.88 199.01 187.96C190.16 180.29 185.5 174.65 186.4 173.56C187.3 172.47 193.6 176.02 203.4 182.02L211.4 186.92C214.27 188.66 217.34 190.59 220.48 192.37C223.596 194.199 226.898 195.691 230.33 196.82C233.842 197.872 237.51 198.305 241.17 198.1C248.85 197.7 256.3 195 262.75 191.88C269.2 188.76 275.04 185.12 280.1 182.28C284.104 179.917 288.291 177.877 292.62 176.18C295.79 175.07 297.71 174.86 298 175.49Z" fill="black"/>
</g>
<path d="M236.86 334.26C237.568 333.978 238.359 333.987 239.062 334.284C239.764 334.581 240.321 335.143 240.612 335.847C240.903 336.552 240.905 337.343 240.617 338.049C240.329 338.755 239.775 339.32 239.074 339.62C238.373 339.92 237.582 339.933 236.872 339.654C236.163 339.376 235.591 338.829 235.281 338.132C234.972 337.435 234.949 336.644 235.218 335.931C235.488 335.217 236.027 334.639 236.72 334.32" fill="#B8BABB"/>
<path d="M176.58 203.38C176.361 203.2 176.16 202.999 175.98 202.78L174.35 201C173.66 200.21 172.75 199.29 171.82 198.12L168.64 194.12C167.55 192.58 166.32 190.92 165.08 189.12L163.25 186.21C162.94 185.71 162.61 185.21 162.31 184.68L161.43 183.06C158.768 178.343 156.684 173.324 155.22 168.11C153.749 162.9 152.956 157.523 152.86 152.11C152.86 150.86 152.93 149.65 152.95 148.46C152.95 147.87 152.95 147.29 153.03 146.72C153.11 146.15 153.15 145.59 153.21 145.04C153.34 143.94 153.42 142.87 153.57 141.85C153.72 140.83 153.93 139.85 154.1 138.94C154.38 137.07 154.88 135.44 155.23 133.94C155.42 133.22 155.57 132.54 155.76 131.94L156.31 130.27L157.08 127.98C157.153 127.707 157.254 127.443 157.38 127.19C157.339 127.469 157.272 127.743 157.18 128.01C157.01 128.59 156.79 129.36 156.5 130.33L156 132C155.83 132.61 155.69 133.29 155.51 134C155.19 135.45 154.72 137.09 154.51 139C154.35 139.92 154.19 140.89 154.02 141.9C153.85 142.91 153.81 143.97 153.69 145.07C153.69 145.62 153.58 146.17 153.52 146.74C153.46 147.31 153.52 147.89 153.46 148.47C153.46 149.65 153.38 150.85 153.39 152.09C153.487 157.471 154.27 162.817 155.72 168C157.176 173.176 159.233 178.163 161.85 182.86C162.14 183.4 162.43 183.94 162.71 184.48C162.99 185.02 163.34 185.48 163.64 186L165.44 188.91C166.66 190.75 167.87 192.41 168.93 193.91L172.05 197.91C172.95 199.1 173.84 200.03 174.5 200.85L176.06 202.7C176.247 202.916 176.421 203.143 176.58 203.38Z" fill="#7A7E80"/>
<path d="M167.09 351.94C167.139 351.825 167.2 351.714 167.27 351.61L167.87 350.67C168.14 350.25 168.47 349.75 168.87 349.15L169.5 348.15C169.75 347.82 170.04 347.49 170.33 347.15L172.33 344.75C173.1 343.92 173.98 343.06 174.91 342.12C177.066 340.044 179.358 338.113 181.77 336.34C187.08 332.34 193.93 328.34 201.35 323.65C205.251 321.246 209.002 318.604 212.58 315.74C216.418 312.682 219.808 309.101 222.65 305.1C227.851 297.108 230.677 287.804 230.8 278.27C230.927 270.499 229.625 262.771 226.96 255.47C225.195 250.543 222.978 245.79 220.34 241.27C219.41 239.66 218.65 238.44 218.13 237.61L217.54 236.67C217.41 236.46 217.35 236.34 217.35 236.34C217.439 236.43 217.516 236.531 217.58 236.64L218.22 237.56C218.77 238.36 219.56 239.56 220.51 241.17C223.23 245.665 225.508 250.414 227.31 255.35C230.047 262.681 231.403 270.455 231.31 278.28C231.268 280.536 231.084 282.787 230.76 285.02C230.436 287.356 229.945 289.665 229.29 291.93C227.924 296.726 225.801 301.274 223 305.4C220.129 309.444 216.702 313.063 212.82 316.15C209.221 319.016 205.45 321.661 201.53 324.07C194.08 328.72 187.22 332.68 181.91 336.65C179.498 338.399 177.201 340.3 175.03 342.34C174.1 343.27 173.21 344.11 172.43 344.93L170.43 347.28C170.13 347.64 169.84 347.97 169.59 348.28L168.94 349.23L167.94 350.72L167.3 351.63C167.238 351.739 167.168 351.842 167.09 351.94Z" fill="#7A7E80"/>
<path d="M157.79 369.61C157.729 369.772 157.656 369.93 157.57 370.08L156.85 371.35C156.53 371.89 156.15 372.57 155.76 373.35C155.37 374.13 154.87 375.05 154.45 376.1C154.23 376.62 153.99 377.16 153.75 377.72C153.51 378.28 153.31 378.9 153.07 379.52C152.59 380.76 152.21 382.12 151.77 383.52C150.03 389.789 149.431 396.319 150 402.8C150.17 404.28 150.29 405.7 150.55 407C150.66 407.65 150.75 408.29 150.88 408.89C151.01 409.49 151.15 410.07 151.28 410.62C151.5 411.73 151.83 412.7 152.07 413.56C152.31 414.42 152.55 415.16 152.77 415.76L153.24 417.14C153.307 417.296 153.351 417.461 153.37 417.63C153.273 417.491 153.196 417.34 153.14 417.18C152.99 416.81 152.81 416.37 152.58 415.83C152.278 415.118 152.014 414.39 151.79 413.65C151.52 412.79 151.17 411.82 150.92 410.71C150.78 410.16 150.64 409.58 150.49 408.98C150.34 408.38 150.25 407.73 150.12 407.08C149.84 405.76 149.7 404.34 149.52 402.85C148.894 396.329 149.498 389.748 151.3 383.45C151.75 382.01 152.15 380.64 152.66 379.4C152.91 378.78 153.11 378.17 153.37 377.6L154.11 375.97C154.55 374.97 155.11 374.04 155.5 373.24C155.852 372.552 156.243 371.884 156.67 371.24L157.47 370.01C157.67 369.74 157.77 369.6 157.79 369.61Z" fill="#7A7E80"/>
<path d="M281.42 393.65L281.22 393.79L280.6 394.18L278.17 395.64L276.41 396.64C275.75 397.01 275.02 397.35 274.24 397.74C272.66 398.5 270.92 399.47 268.86 400.25L265.66 401.56C264.55 402 263.34 402.35 262.12 402.77C259.69 403.66 256.99 404.3 254.18 405.03C241.842 407.92 229.044 408.26 216.57 406.03C213.71 405.45 210.99 404.95 208.51 404.19C207.27 403.83 206.05 403.55 204.91 403.19L201.65 402C199.56 401.33 197.76 400.46 196.15 399.78C195.35 399.43 194.6 399.12 193.93 398.78L192.11 397.83L189.61 396.5L188.97 396.14L188.76 396.01C188.76 396.01 188.85 396.01 189 396.1L189.66 396.41L192.2 397.65L194.03 398.55C194.71 398.87 195.47 399.16 196.27 399.5C197.88 400.14 199.68 400.99 201.78 401.63L205 402.8C206.14 403.18 207.36 403.45 208.6 403.8C211.07 404.54 213.78 405.01 216.6 405.58C229.016 407.73 241.736 407.39 254.02 404.58C256.82 403.86 259.51 403.25 261.94 402.38C263.16 401.97 264.36 401.64 265.47 401.2L268.67 399.93C270.73 399.17 272.48 398.23 274.06 397.5C274.84 397.12 275.58 396.79 276.24 396.5L278.02 395.5L280.49 394.12L281.14 393.78C281.34 393.67 281.42 393.64 281.42 393.65Z" fill="#7A7E80"/>
<path d="M291.85 182C291.789 182.072 291.718 182.136 291.64 182.19L290.98 182.73C290.37 183.22 289.52 183.91 288.43 184.73C286.21 186.49 282.99 189.04 278.92 192.08C274.184 195.706 269.217 199.019 264.05 202C260.978 203.719 257.774 205.194 254.47 206.41C250.906 207.707 247.188 208.534 243.41 208.87C236.065 209.282 228.741 207.758 222.17 204.45C219.328 203.007 216.586 201.376 213.96 199.57C211.52 197.85 209.29 196.18 207.32 194.57C203.32 191.39 200.26 188.7 198.1 186.86L195.63 184.72L195 184.16L194.79 183.95C194.79 183.95 194.88 183.95 195.03 184.11L195.7 184.64L198.23 186.7C200.43 188.5 203.57 191.14 207.55 194.28C209.55 195.85 211.76 197.5 214.21 199.2C216.827 200.975 219.556 202.579 222.38 204C228.885 207.242 236.123 208.735 243.38 208.33C247.113 207.999 250.787 207.186 254.31 205.91C257.592 204.71 260.775 203.256 263.83 201.56C268.989 198.633 273.962 195.391 278.72 191.85C282.8 188.85 286.05 186.35 288.32 184.64L290.93 182.64L291.62 182.14C291.689 182.082 291.767 182.035 291.85 182Z" fill="#7A7E80"/>
<g opacity="0.24">
<path d="M201.66 402.05C206.4 398.39 213.06 399.27 218.92 400.51C224.78 401.75 230.68 403.74 236.61 402.91C241.08 402.28 245.18 400.09 249.61 399.13C254.04 398.17 259.37 398.88 261.82 402.67C242.238 408.98 221.138 408.762 201.69 402.05" fill="black"/>
</g>
<path d="M367 374.91L345.5 350.8L345.28 380.11L351.76 398.91L287.34 410.08L284.61 359.25L279.97 320.25C279.694 317.925 280.196 315.574 281.397 313.564C282.598 311.554 284.431 309.998 286.61 309.14L304.34 302.14L329.34 306.72L339.39 310.54C343.603 312.145 347.36 314.757 350.33 318.15L380.57 352.73" fill="#7C8184"/>
<path d="M344 345C345.214 344.983 346.426 344.897 347.63 344.74C350.53 344.297 353.233 342.999 355.39 341.01C357.548 339.022 359.062 336.435 359.74 333.58C359.989 332.388 360.173 331.182 360.29 329.97C360.371 330.297 360.402 330.634 360.38 330.97C360.387 331.878 360.294 332.783 360.1 333.67C359.495 336.639 357.97 339.343 355.743 341.398C353.516 343.453 350.698 344.755 347.69 345.12C346.791 345.236 345.883 345.256 344.98 345.18C344.646 345.173 344.315 345.112 344 345Z" fill="white"/>
<path d="M345.87 378.86C346.02 378.86 346.06 368.7 345.96 356.18C345.86 343.66 345.65 333.51 345.5 333.51C345.35 333.51 345.31 343.66 345.41 356.19C345.51 368.72 345.72 378.86 345.87 378.86Z" fill="#263238"/>
<path d="M343.51 386.31L304.59 370.64C303.051 370.021 301.717 368.984 300.736 367.646C299.755 366.309 299.168 364.724 299.04 363.07L296.19 325.75C296.19 325.75 296.53 309.87 286.61 309.1L281 311.32C273.71 315.19 271.91 325.81 272.9 334C274.31 345.64 274.9 362.12 276.47 372.22C277.77 380.49 282.47 387.76 290.59 389.89L338.53 400.27L343.51 386.31Z" fill="#7C8184"/>
<path d="M296.75 331.44C296.815 331.719 296.855 332.004 296.87 332.29C296.93 332.9 297.02 333.72 297.12 334.75C297.32 336.94 297.6 340.02 297.94 343.8C298.28 347.58 298.66 352.19 299.1 357.23C299.2 358.5 299.31 359.79 299.42 361.11C299.497 362.453 299.664 363.789 299.92 365.11C300.191 366.446 300.869 367.665 301.86 368.6C302.926 369.538 304.139 370.294 305.45 370.84C316.18 375.48 326.07 379.32 333.25 382.01L341.78 385.15L344.1 386C344.371 386.09 344.635 386.2 344.89 386.33C344.607 386.278 344.329 386.201 344.06 386.1L341.71 385.34C339.71 384.66 336.71 383.65 333.13 382.34C325.9 379.74 316 375.96 305.23 371.34C303.868 370.768 302.608 369.977 301.5 369C300.436 367.99 299.71 366.677 299.42 365.24C299.162 363.9 298.998 362.543 298.93 361.18C298.82 359.85 298.72 358.56 298.62 357.29C298.23 352.29 297.87 347.69 297.62 343.85C297.37 340.01 297.12 336.98 296.96 334.79C296.89 333.79 296.84 332.93 296.81 332.32C296.764 332.029 296.744 331.735 296.75 331.44Z" fill="#263238"/>
<path d="M274.45 351.73C274.49 351.894 274.513 352.061 274.52 352.23L274.65 353.67C274.77 355 274.92 356.79 275.11 358.97C275.3 361.15 275.6 363.86 275.99 366.8C276.372 369.984 276.957 373.14 277.74 376.25C278.108 377.852 278.751 379.378 279.64 380.76C280.508 382.029 281.482 383.223 282.55 384.33C284.37 386.202 286.472 387.778 288.78 389C290.931 390.093 293.238 390.849 295.62 391.24C295.45 391.262 295.279 391.262 295.11 391.24C294.626 391.208 294.145 391.144 293.67 391.05C291.911 390.722 290.207 390.146 288.61 389.34C286.237 388.146 284.075 386.571 282.21 384.68C281.104 383.561 280.1 382.347 279.21 381.05C278.276 379.629 277.599 378.055 277.21 376.4C276.416 373.267 275.838 370.082 275.48 366.87C275.12 363.87 274.88 361.25 274.72 359.01C274.56 356.77 274.47 354.95 274.42 353.69C274.42 353.11 274.42 352.63 274.42 352.24C274.403 352.069 274.413 351.897 274.45 351.73Z" fill="#263238"/>
<path d="M291.09 377.84C291.192 377.111 291.433 376.408 291.8 375.77C292.602 374.176 293.714 372.758 295.07 371.599C296.427 370.44 298 369.564 299.7 369.02C300.389 368.757 301.123 368.631 301.86 368.65C301.205 368.923 300.538 369.163 299.86 369.37C298.252 369.992 296.761 370.881 295.45 372C294.142 373.121 293.03 374.453 292.16 375.94C291.46 377.09 291.17 377.87 291.09 377.84Z" fill="#263238"/>
<path d="M298.75 349.46C298.835 349.485 298.916 349.522 298.99 349.57L299.69 349.94C300.593 350.385 301.521 350.775 302.47 351.11C305.969 352.338 309.722 352.661 313.38 352.05C318.813 351.081 323.667 348.063 326.94 343.62C328.896 341.054 330.123 338.006 330.49 334.8C330.672 333.115 330.494 331.411 329.97 329.8C329.417 328.155 328.453 326.679 327.17 325.51C325.905 324.326 324.312 323.552 322.6 323.29C321.789 323.145 320.955 323.185 320.162 323.409C319.368 323.632 318.636 324.033 318.02 324.58C317.462 325.127 317.139 325.869 317.12 326.65C317.137 327.426 317.404 328.177 317.88 328.79C318.377 329.383 318.986 329.871 319.672 330.226C320.359 330.581 321.109 330.797 321.88 330.86C324.588 331.198 327.337 330.85 329.876 329.849C332.415 328.848 334.661 327.225 336.41 325.13C337.736 323.5 338.734 321.629 339.35 319.62C339.81 318.098 340.059 316.52 340.09 314.93C340.101 313.926 340.027 312.922 339.87 311.93C339.81 311.62 339.76 311.36 339.73 311.16C339.721 311.07 339.721 310.98 339.73 310.89C340.143 312.183 340.346 313.533 340.33 314.89C340.34 316.503 340.118 318.11 339.67 319.66C338.557 323.396 336.153 326.616 332.888 328.745C329.623 330.875 325.708 331.777 321.84 331.29C321.014 331.217 320.211 330.982 319.476 330.597C318.742 330.213 318.091 329.687 317.56 329.05C317.017 328.351 316.715 327.495 316.7 326.61C316.701 325.7 317.06 324.827 317.7 324.18C318.372 323.58 319.17 323.139 320.036 322.89C320.901 322.641 321.812 322.589 322.7 322.74C324.519 323.01 326.211 323.83 327.55 325.09C328.904 326.313 329.917 327.868 330.49 329.6C331.035 331.276 331.219 333.048 331.03 334.8C330.64 338.076 329.372 341.185 327.36 343.8C324.584 347.588 320.644 350.362 316.141 351.699C311.639 353.035 306.823 352.86 302.43 351.2C301.132 350.785 299.895 350.199 298.75 349.46Z" fill="white"/>
<path d="M273.25 339.51C273.419 339.211 273.635 338.94 273.89 338.71C274.529 338.033 275.232 337.421 275.99 336.88C278.543 335.126 281.512 334.074 284.6 333.83C286.294 333.639 288.007 333.71 289.68 334.04C291.039 334.322 292.355 334.786 293.59 335.42C294.419 335.838 295.215 336.319 295.97 336.86C296.262 337.039 296.525 337.261 296.75 337.52C296.69 337.6 295.53 336.72 293.43 335.75C290.693 334.481 287.657 333.996 284.66 334.35C281.651 334.587 278.746 335.559 276.2 337.18C274.27 338.47 273.32 339.58 273.25 339.51Z" fill="white"/>
<path d="M279.48 312.82C280.429 313.714 281.487 314.483 282.63 315.11C283.878 315.75 285.235 316.15 286.63 316.29C288.329 316.46 290.043 316.22 291.63 315.59C293.185 314.927 294.558 313.898 295.63 312.59C296.515 311.499 297.193 310.255 297.63 308.92C297.989 307.666 298.194 306.373 298.24 305.07C298.337 305.415 298.381 305.772 298.37 306.13C298.387 307.111 298.255 308.089 297.98 309.03C297.572 310.435 296.893 311.747 295.98 312.89C294.884 314.324 293.427 315.442 291.759 316.131C290.09 316.82 288.269 317.054 286.48 316.81C285.03 316.646 283.626 316.197 282.35 315.49C281.491 315.018 280.708 314.418 280.03 313.71C279.793 313.45 279.607 313.148 279.48 312.82Z" fill="white"/>
<path d="M313.4 374.19C313.402 373.941 313.429 373.693 313.48 373.45C313.62 372.756 313.852 372.083 314.17 371.45C315.441 369.121 317.507 367.325 319.99 366.39C323.645 364.937 327.69 364.792 331.44 365.98C333.5 366.59 335.86 367.35 337.44 369.36C337.837 369.873 338.088 370.485 338.166 371.129C338.243 371.774 338.144 372.427 337.88 373.02C337.276 374.177 336.301 375.096 335.11 375.63C333.961 376.199 332.702 376.513 331.42 376.55C330.147 376.612 328.894 376.222 327.88 375.45C327.412 375.051 327.03 374.56 326.759 374.008C326.487 373.456 326.331 372.854 326.3 372.24C326.234 371.092 326.415 369.943 326.83 368.87C328.337 365.224 331.207 362.311 334.83 360.75C337.233 359.679 339.866 359.225 342.49 359.43C343.445 359.503 344.387 359.701 345.29 360.02C345.29 360.09 344.29 359.76 342.47 359.63C340.297 359.512 338.122 359.839 336.079 360.59C334.037 361.342 332.169 362.502 330.59 364C329.124 365.404 327.981 367.11 327.24 369C326.852 370.01 326.685 371.09 326.75 372.17C326.779 372.717 326.92 373.252 327.164 373.742C327.408 374.233 327.751 374.667 328.17 375.02C329.084 375.722 330.218 376.077 331.37 376.02C332.572 375.989 333.753 375.695 334.83 375.16C335.917 374.675 336.811 373.841 337.37 372.79C337.595 372.279 337.679 371.717 337.612 371.163C337.545 370.609 337.33 370.083 336.99 369.64C336.292 368.759 335.399 368.054 334.38 367.58C333.392 367.108 332.365 366.723 331.31 366.43C327.659 365.249 323.714 365.351 320.13 366.72C317.701 367.599 315.656 369.301 314.35 371.53C313.917 372.371 313.598 373.265 313.4 374.19Z" fill="white"/>
<path d="M287.48 388.24C287.48 388.14 288.96 388.02 291.21 387.24C294.147 386.205 296.779 384.452 298.865 382.139C300.95 379.826 302.423 377.028 303.15 374C303.72 371.68 303.7 370.17 303.8 370.18C303.87 370.525 303.887 370.879 303.85 371.23C303.827 372.189 303.713 373.143 303.51 374.08C302.862 377.206 301.391 380.102 299.25 382.47C297.109 384.838 294.375 386.591 291.33 387.55C290.418 387.847 289.481 388.058 288.53 388.18C288.185 388.251 287.831 388.271 287.48 388.24Z" fill="white"/>
<path d="M274.86 359.23C275.008 359.147 275.166 359.083 275.33 359.04C275.65 358.94 276.11 358.8 276.72 358.64C278.451 358.184 280.243 358.002 282.03 358.1C283.271 358.194 284.488 358.495 285.63 358.99C286.96 359.564 288.118 360.473 288.99 361.63C289.947 362.942 290.411 364.55 290.3 366.17C290.236 367.032 289.972 367.867 289.53 368.61C289.082 369.393 288.375 369.994 287.53 370.31C287.084 370.462 286.607 370.494 286.145 370.402C285.683 370.311 285.254 370.1 284.9 369.79C284.3 369.128 283.974 368.263 283.99 367.37C283.938 365.777 284.253 364.193 284.91 362.74C285.823 360.67 287.401 358.964 289.393 357.893C291.386 356.823 293.68 356.448 295.91 356.83C296.389 356.904 296.861 357.022 297.32 357.18C297.63 357.3 297.79 357.37 297.78 357.39C297.77 357.41 297.11 357.18 295.88 357.03C294.142 356.82 292.378 357.046 290.75 357.69C288.337 358.658 286.407 360.542 285.38 362.93C284.769 364.318 284.479 365.825 284.53 367.34C284.509 368.105 284.781 368.849 285.29 369.42C285.577 369.664 285.922 369.829 286.292 369.899C286.662 369.969 287.044 369.942 287.4 369.82C288.141 369.546 288.763 369.023 289.16 368.34C289.558 367.666 289.797 366.91 289.86 366.13C289.965 364.628 289.544 363.136 288.67 361.91C287.858 360.809 286.772 359.94 285.52 359.39C284.426 358.893 283.256 358.582 282.06 358.47C280.311 358.34 278.553 358.464 276.84 358.84C275.55 359.09 274.88 359.27 274.86 359.23Z" fill="white"/>
<g opacity="0.3">
<path d="M332.32 381.86C328.16 379.51 324.09 377.7 319.74 375.73C315.39 373.76 311.12 371.21 308.27 367.37C302.9 360.13 303.51 349.68 298.02 342.54C298.38 347.34 298.737 352.143 299.09 356.95C299.42 361.35 298.75 365.71 301.58 368.7C303.97 371.22 308.63 373.15 311.93 374.24C318.56 376.43 325.7 379.68 332.32 381.86Z" fill="black"/>
</g>
<path d="M400 436.71C400 436.71 432.57 445.71 433.88 446.19C435.88 446.88 435.51 454.07 432.46 453.95C431.01 453.9 407.46 454.83 404.46 454.65C401.46 454.47 392.46 450.92 392.46 450.92L400 436.71Z" fill="#7C8184"/>
<path d="M413.53 449.14C413.932 447.943 414.413 446.774 414.97 445.64C415.671 444.591 416.439 443.589 417.27 442.64C416.111 443.275 415.149 444.216 414.49 445.36C413.83 446.505 413.498 447.809 413.53 449.13V449.14Z" fill="#263238"/>
<path d="M410.13 447.6C410.29 447.6 410.62 446.09 411.49 444.39C412.36 442.69 413.38 441.5 413.27 441.39C412.319 442.13 411.545 443.072 411.002 444.148C410.459 445.223 410.161 446.406 410.13 447.61V447.6Z" fill="#263238"/>
<path d="M407 446.75C407.159 445.585 407.414 444.434 407.76 443.31C408.27 442.249 408.862 441.23 409.53 440.26C408.497 440.955 407.701 441.949 407.249 443.109C406.797 444.269 406.71 445.539 407 446.75Z" fill="#263238"/>
<path d="M407.53 442.54C407.817 441.767 407.937 440.942 407.88 440.12C407.87 439.224 407.759 438.332 407.55 437.46C407.425 436.945 407.261 436.44 407.06 435.95C406.966 435.64 406.786 435.362 406.54 435.15C406.376 435.028 406.174 434.967 405.969 434.978C405.765 434.989 405.571 435.071 405.42 435.21C405.168 435.453 405.014 435.781 404.99 436.13C404.966 436.416 404.966 436.704 404.99 436.99C404.993 437.526 405.06 438.06 405.19 438.58C405.407 439.452 405.743 440.29 406.19 441.07C406.548 441.822 407.044 442.5 407.65 443.07C407.73 443.07 407.18 442.26 406.53 440.93C406.15 440.161 405.865 439.348 405.68 438.51C405.575 438.02 405.521 437.521 405.52 437.02C405.52 436.52 405.52 435.9 405.82 435.66C405.879 435.607 405.956 435.577 406.035 435.577C406.115 435.577 406.191 435.607 406.25 435.66C406.413 435.82 406.536 436.015 406.61 436.23C406.802 436.7 406.965 437.181 407.1 437.67C407.329 438.5 407.473 439.351 407.53 440.21C407.59 441.61 407.44 442.53 407.53 442.54Z" fill="#263238"/>
<path d="M407.49 442.21C406.827 441.933 406.107 441.817 405.39 441.87C404.612 441.87 403.836 441.964 403.08 442.15C402.614 442.256 402.164 442.42 401.74 442.64C401.473 442.776 401.258 442.994 401.126 443.263C400.994 443.532 400.954 443.836 401.01 444.13C401.085 444.411 401.232 444.667 401.438 444.872C401.643 445.078 401.899 445.225 402.18 445.3C402.659 445.42 403.161 445.42 403.64 445.3C404.411 445.124 405.134 444.783 405.76 444.3C406.353 443.903 406.865 443.397 407.27 442.81C406.668 443.162 406.091 443.553 405.54 443.98C404.935 444.395 404.256 444.691 403.54 444.85C403.143 444.95 402.727 444.95 402.33 444.85C402.142 444.803 401.97 444.706 401.832 444.571C401.693 444.436 401.592 444.267 401.54 444.08C401.51 443.897 401.54 443.709 401.627 443.544C401.713 443.38 401.852 443.248 402.02 443.17C402.391 442.966 402.788 442.811 403.2 442.71C403.918 442.505 404.655 442.378 405.4 442.33C406.67 442.17 407.47 442.3 407.49 442.21Z" fill="#263238"/>
<path d="M418.53 449.49C418.67 448.495 418.887 447.512 419.18 446.55C419.637 445.657 420.169 444.804 420.77 444C419.821 444.517 419.08 445.346 418.672 446.346C418.264 447.346 418.214 448.457 418.53 449.49Z" fill="#263238"/>
<path d="M395.81 451C396.205 451.25 396.628 451.451 397.07 451.6C398.252 452.049 399.461 452.423 400.69 452.72C404.774 453.611 408.951 454.007 413.13 453.9C418.01 453.84 422.41 453.62 425.6 453.49L429.37 453.29C429.833 453.282 430.295 453.235 430.75 453.15C430.29 453.078 429.825 453.054 429.36 453.08H425.59L413.13 453.32C408.99 453.426 404.85 453.091 400.78 452.32C397.66 451.69 395.85 450.89 395.81 451Z" fill="#263238"/>
<path d="M394.85 451.74C394.85 451.81 395.78 451.29 397.29 450.63C399.209 449.724 401.344 449.377 403.45 449.63C405.522 450.079 407.392 451.188 408.78 452.79C409.358 453.473 409.983 454.114 410.65 454.71C410.221 453.915 409.686 453.182 409.06 452.53C408.418 451.784 407.693 451.113 406.9 450.53C405.906 449.794 404.751 449.307 403.53 449.11C401.32 448.842 399.081 449.265 397.12 450.32C396.292 450.668 395.525 451.147 394.85 451.74Z" fill="#263238"/>
<path d="M365.39 427.72C365.39 427.72 334.57 447.9 333.47 448.72C331.81 449.97 333.71 455.94 336.59 454.91C337.95 454.42 363.81 447.22 366.59 446.14C369.37 445.06 376.86 439 376.86 439L365.39 427.72Z" fill="#7C8184"/>
<path d="M356.24 443.68C355.869 442.411 355.155 441.269 354.178 440.378C353.201 439.488 351.998 438.883 350.7 438.63C351.784 439.28 352.823 440.001 353.81 440.79C354.68 441.702 355.491 442.667 356.24 443.68Z" fill="#263238"/>
<path d="M359 441.18C358.608 440.039 357.968 438.998 357.126 438.134C356.284 437.269 355.261 436.602 354.13 436.18C354.05 436.32 355.4 437.18 356.73 438.5C358.06 439.82 358.86 441.26 359 441.18Z" fill="#263238"/>
<path d="M361.78 439.4C361.776 438.142 361.297 436.931 360.44 436.01C359.723 434.993 358.654 434.28 357.44 434.01C358.368 434.734 359.24 435.526 360.05 436.38C360.706 437.339 361.284 438.349 361.78 439.4Z" fill="#263238"/>
<path d="M360 435.57C360.08 435.57 359.66 434.7 359.31 433.26C359.099 432.425 358.975 431.57 358.94 430.71C358.906 430.204 358.906 429.696 358.94 429.19C358.936 428.962 358.995 428.737 359.11 428.54C359.153 428.472 359.221 428.424 359.3 428.405C359.378 428.386 359.461 428.399 359.53 428.44C359.88 428.58 360.06 429.18 360.23 429.66C360.377 430.136 360.477 430.625 360.53 431.12C360.607 431.977 360.58 432.84 360.45 433.69C360.24 435.15 359.95 436.04 360.03 436.07C360.442 435.355 360.713 434.567 360.83 433.75C361.022 432.874 361.089 431.975 361.03 431.08C360.99 430.545 360.892 430.015 360.74 429.5C360.658 429.224 360.557 428.953 360.44 428.69C360.307 428.363 360.057 428.096 359.74 427.94C359.554 427.854 359.345 427.835 359.147 427.889C358.95 427.942 358.777 428.062 358.66 428.23C358.494 428.508 358.408 428.826 358.41 429.15C358.3 430.574 358.463 432.007 358.89 433.37C359.1 434.174 359.479 434.923 360 435.57Z" fill="#263238"/>
<path d="M359.89 435.24C359.89 435.32 360.65 434.96 361.89 434.65C362.615 434.476 363.355 434.376 364.1 434.35C364.525 434.321 364.952 434.348 365.37 434.43C365.554 434.455 365.725 434.539 365.858 434.668C365.992 434.798 366.08 434.967 366.11 435.15C366.119 435.349 366.074 435.546 365.981 435.722C365.888 435.898 365.749 436.045 365.58 436.15C365.236 436.366 364.845 436.497 364.44 436.53C363.709 436.602 362.972 436.527 362.27 436.31C361.618 436.066 360.95 435.869 360.27 435.72C360.834 436.171 361.479 436.51 362.17 436.72C362.912 437.004 363.707 437.124 364.5 437.07C364.993 437.044 365.472 436.893 365.89 436.63C366.138 436.478 366.34 436.262 366.475 436.006C366.61 435.749 366.674 435.46 366.66 435.17C366.625 434.872 366.494 434.594 366.286 434.378C366.079 434.161 365.806 434.018 365.51 433.97C365.042 433.887 364.564 433.867 364.09 433.91C363.312 433.962 362.544 434.106 361.8 434.34C361.103 434.489 360.449 434.797 359.89 435.24Z" fill="#263238"/>
<path d="M340.51 453.8C340.51 453.85 341.03 453.49 341.27 452.61C341.509 451.46 341.302 450.262 340.69 449.26C340.394 448.724 340.06 448.209 339.69 447.72C339.389 447.303 339.037 446.927 338.64 446.6C338.356 446.365 338.007 446.222 337.64 446.19C337.38 446.19 337.25 446.24 337.25 446.27C337.25 446.3 337.8 446.32 338.37 446.9C338.706 447.24 339.005 447.616 339.26 448.02C339.619 448.503 339.952 449.003 340.26 449.52C340.812 450.417 341.052 451.472 340.94 452.52C340.823 452.955 340.679 453.382 340.51 453.8Z" fill="#263238"/>
<path d="M351.58 445.53C351.621 444.989 351.545 444.445 351.357 443.936C351.169 443.427 350.873 442.964 350.49 442.58C350.182 442.133 349.78 441.759 349.311 441.484C348.843 441.209 348.32 441.041 347.78 440.99C348.597 441.57 349.363 442.219 350.07 442.93C350.645 443.753 351.15 444.622 351.58 445.53Z" fill="#263238"/>
<path d="M373.69 440.07C373.211 440.337 372.756 440.645 372.33 440.99C371.108 441.838 369.84 442.616 368.53 443.32C366.591 444.348 364.587 445.247 362.53 446.01C360.19 446.88 357.53 447.7 354.81 448.5C349.26 450.1 344.24 451.56 340.62 452.65L336.31 454C335.778 454.141 335.259 454.329 334.76 454.56C335.305 454.486 335.843 454.369 336.37 454.21L340.7 453C344.35 452 349.38 450.6 354.93 449C357.7 448.19 360.33 447.35 362.67 446.45C364.752 445.658 366.774 444.716 368.72 443.63C370.026 442.89 371.276 442.054 372.46 441.13C372.898 440.811 373.31 440.457 373.69 440.07Z" fill="#263238"/>
<path d="M374.83 440.48C374.001 440.115 373.121 439.879 372.22 439.78C370.029 439.374 367.767 439.654 365.74 440.58C364.645 441.153 363.705 441.984 363 443C362.42 443.802 361.934 444.668 361.55 445.58C361.149 446.39 360.863 447.251 360.7 448.14C361.153 447.368 361.554 446.566 361.9 445.74C362.734 443.788 364.18 442.159 366.02 441.1C367.956 440.229 370.097 439.921 372.2 440.21C373.8 440.34 374.81 440.56 374.83 440.48Z" fill="#263238"/>
<path d="M429.44 378.51C429.44 378.51 438.69 381.81 438.72 392.18C438.8 412.03 398.6 433.92 398.6 433.92L345.1 398.48L341.75 397.12C341.75 397.12 414 370 429.44 378.51Z" fill="#263238"/>
<path d="M372.2 416.38C372.693 416.107 373.161 415.793 373.6 415.44C374.47 414.8 375.72 413.86 377.25 412.67C380.32 410.31 384.48 406.95 388.97 403.1C393.46 399.25 397.4 395.64 400.2 392.97C401.6 391.64 402.72 390.54 403.49 389.77C403.906 389.395 404.287 388.983 404.63 388.54C404.17 388.862 403.738 389.224 403.34 389.62L399.94 392.69C397.07 395.28 393.09 398.85 388.61 402.69C384.13 406.53 380.01 409.93 377.02 412.37L373.47 415.27C373.018 415.606 372.593 415.977 372.2 416.38Z" fill="#455A64"/>
<path d="M414.34 385.93C410.842 385.56 407.339 386.592 404.6 388.8C404.69 388.95 406.6 387.7 409.34 386.92C412.08 386.14 414.34 386.1 414.34 385.93Z" fill="#455A64"/>
<path d="M409.73 382.8C408.492 383.325 407.403 384.148 406.559 385.194C405.715 386.241 405.142 387.479 404.89 388.8C405.05 388.8 405.63 387.19 406.98 385.54C408.33 383.89 409.82 382.94 409.73 382.8Z" fill="#455A64"/>
<path d="M432.38 445.68C432.38 445.62 431.74 445.49 431 446.1C430.128 446.913 429.581 448.014 429.46 449.2C429.284 450.366 429.451 451.557 429.94 452.63C430.32 453.44 430.74 453.82 430.79 453.78C430.658 453.336 430.494 452.901 430.3 452.48C429.95 451.452 429.847 450.355 430 449.28C430.119 448.209 430.558 447.198 431.26 446.38C431.83 445.79 432.39 445.77 432.38 445.68Z" fill="#263238"/>
<path d="M417.13 346.06L398.08 394.36L316.05 395.7L314.53 391.26L343.28 390.22L357.1 347.37L417.13 346.06Z" fill="#455A64"/>
<path d="M378.82 367C379.45 366.684 380.157 366.556 380.858 366.632C381.559 366.709 382.223 366.986 382.77 367.43C383.234 367.867 383.556 368.434 383.693 369.056C383.831 369.679 383.777 370.328 383.54 370.92C383.283 371.511 382.866 372.018 382.335 372.384C381.805 372.749 381.183 372.959 380.54 372.99C379.862 373.033 379.189 372.855 378.623 372.481C378.056 372.108 377.627 371.56 377.4 370.92C377.186 370.205 377.204 369.44 377.452 368.735C377.7 368.031 378.165 367.423 378.78 367" fill="#EBEBEB"/>
<path d="M403.66 436.34C403.66 436.34 328.08 386.76 325 385.73C321.92 384.7 314.42 379.8 306.95 381.86C299.48 383.92 292.76 390.63 289.41 400.43C287.49 406.03 286.59 415.58 286.16 422.75C285.587 431.324 288.365 439.785 293.91 446.35C296.366 449.413 299.628 451.73 303.33 453.04C304.12 453.29 304.94 453.5 305.78 453.68C320.07 456.78 334.78 450.36 342.78 438.14L344.54 435.46C344.54 435.46 393.99 453.62 394.76 453.37L403.66 436.34Z" fill="#263238"/>
<path d="M310.16 422.69C310.294 422.757 310.43 422.817 310.57 422.87L311.81 423.36L316.6 425.21L334.41 431.92C341.97 434.74 351.03 438.1 361.2 441.8C371.37 445.5 382.63 449.55 394.67 453.62L394.88 453.7L394.99 453.49L400.9 442.21L403.9 436.46L404.01 436.24L403.8 436.11L346.15 399.51L328.83 388.59L324.13 385.65L322.9 384.9C322.62 384.73 322.47 384.66 322.47 384.66L322.87 384.95L324.07 385.74L328.72 388.74L346 399.83L403.56 436.57L403.46 436.21C402.51 438.04 401.46 439.99 400.46 441.96L394.56 453.24L394.89 453.11C382.89 449.05 371.59 445.01 361.41 441.34L334.58 431.58L316.67 425L311.85 423.24L310.59 422.8L310.16 422.69Z" fill="#455A64"/>
<path d="M318 246.64C319.29 243.15 322.14 241.64 325.75 240.77C327.566 240.347 329.457 240.37 331.262 240.834C333.067 241.299 334.734 242.193 336.12 243.44C337.95 245.11 339.29 247.44 341.55 248.44C345.28 250.13 350.05 247.66 353.55 249.73C354.601 250.349 355.406 251.314 355.826 252.459C356.247 253.605 356.258 254.861 355.857 256.013C355.456 257.166 354.669 258.144 353.628 258.781C352.588 259.419 351.359 259.676 350.15 259.51C352.58 260.65 353.03 264.31 351.36 266.41C349.69 268.51 346.6 269.08 344.01 268.35C341.457 267.471 339.192 265.911 337.46 263.84C335.64 261.84 334.04 259.69 332.06 257.84C330.159 255.909 327.637 254.712 324.94 254.46C321.31 254.32 317.94 256.77 316.05 259.86C314.16 262.95 313.43 266.62 312.9 270.22C312.37 273.82 311.97 277.48 310.58 280.84C310.42 281.24 310.18 281.67 309.77 281.76C309.16 281.89 308.72 281.22 308.48 280.65C305.743 274.228 304.296 267.33 304.22 260.35C304.17 256.35 304.63 252.52 307.14 249.35C309.65 246.18 315.44 244.21 317.97 246.59" fill="#263238"/>
<path d="M309.48 262.77L303.92 303.15C303.697 304.781 303.808 306.44 304.247 308.026C304.686 309.612 305.442 311.093 306.472 312.377C307.501 313.661 308.78 314.723 310.233 315.497C311.685 316.271 313.28 316.742 314.92 316.88C318.025 317.15 321.114 316.216 323.549 314.27C325.984 312.325 327.578 309.518 328 306.43C328.41 303.43 328.76 300.86 328.83 300.55C328.83 300.55 339.24 301 341.38 290.93C342.38 286.06 343.73 275.86 344.82 266.62C345.37 261.838 344.102 257.025 341.267 253.135C338.433 249.244 334.24 246.562 329.52 245.62L328.52 245.43C317.87 243.91 310.67 252.11 309.48 262.77Z" fill="#FFBE9D"/>
<path d="M328.82 300.41C324.139 299.551 319.82 297.32 316.41 294C316.41 294 318.07 301.88 328.32 303L328.82 300.41Z" fill="#EB996E"/>
<path d="M340.47 272.8C340.399 273.176 340.184 273.51 339.869 273.729C339.555 273.948 339.167 274.034 338.79 273.97C338.604 273.949 338.424 273.891 338.261 273.799C338.098 273.707 337.955 273.583 337.841 273.435C337.727 273.286 337.645 273.116 337.598 272.935C337.551 272.754 337.542 272.565 337.57 272.38C337.638 272.002 337.853 271.666 338.168 271.445C338.482 271.224 338.871 271.136 339.25 271.2C339.436 271.222 339.616 271.281 339.779 271.374C339.943 271.467 340.085 271.592 340.199 271.741C340.313 271.891 340.395 272.061 340.442 272.243C340.489 272.425 340.498 272.614 340.47 272.8Z" fill="#263238"/>
<path d="M341.61 271.14C341.39 271.3 340.46 270.27 338.91 269.96C337.36 269.65 336.06 270.21 335.91 269.96C335.76 269.71 336.1 269.56 336.67 269.3C337.43 268.962 338.277 268.875 339.09 269.05C339.897 269.205 340.634 269.615 341.19 270.22C341.62 270.7 341.71 271.08 341.61 271.14Z" fill="#263238"/>
<path d="M325.15 270.28C325.082 270.658 324.867 270.994 324.552 271.215C324.238 271.436 323.849 271.524 323.47 271.46C323.284 271.437 323.104 271.377 322.941 271.283C322.778 271.19 322.636 271.065 322.521 270.917C322.407 270.768 322.323 270.598 322.275 270.416C322.227 270.235 322.215 270.046 322.24 269.86C322.315 269.485 322.532 269.154 322.844 268.935C323.157 268.715 323.542 268.624 323.92 268.68C324.107 268.702 324.287 268.761 324.451 268.854C324.614 268.947 324.757 269.072 324.872 269.221C324.987 269.37 325.07 269.541 325.118 269.722C325.166 269.904 325.177 270.094 325.15 270.28Z" fill="#263238"/>
<path d="M326.3 268.39C326.08 268.54 325.15 267.51 323.6 267.2C322.05 266.89 320.75 267.45 320.6 267.2C320.45 266.95 320.79 266.8 321.36 266.54C322.121 266.207 322.967 266.12 323.78 266.29C324.587 266.454 325.324 266.862 325.89 267.46C326.31 268 326.4 268.32 326.3 268.39Z" fill="#263238"/>
<path d="M329.63 281C330.498 280.903 331.376 280.92 332.24 281.05C332.65 281.05 333.04 281.05 333.16 280.82C333.287 280.423 333.287 279.997 333.16 279.6C332.98 278.6 332.79 277.48 332.59 276.34C331.82 271.72 331.35 267.96 331.53 267.93C331.71 267.9 332.53 271.62 333.26 276.24C333.44 277.38 333.62 278.46 333.78 279.5C333.936 280.029 333.897 280.597 333.67 281.1C333.585 281.226 333.472 281.332 333.341 281.408C333.209 281.484 333.062 281.529 332.91 281.54C332.681 281.572 332.449 281.572 332.22 281.54C331.337 281.469 330.467 281.287 329.63 281Z" fill="#263238"/>
<path d="M324.85 281.18C325.11 281.18 324.77 282.9 325.97 284.38C327.17 285.86 328.97 286.04 328.97 286.28C328.97 286.52 328.51 286.52 327.75 286.39C326.76 286.207 325.865 285.684 325.22 284.91C324.61 284.16 324.312 283.204 324.39 282.24C324.47 281.52 324.74 281.14 324.85 281.18Z" fill="#263238"/>
<path d="M327.91 262.38C327.68 262.78 326.17 262.27 324.3 262.12C322.43 261.97 320.87 262.18 320.7 261.75C320.63 261.55 320.97 261.21 321.64 260.92C322.529 260.569 323.488 260.432 324.44 260.52C325.397 260.593 326.323 260.895 327.14 261.4C327.75 261.8 328 262.2 327.91 262.38Z" fill="#263238"/>
<path d="M341.93 266.54C341.59 266.84 340.6 266.26 339.31 265.98C338.02 265.7 336.89 265.75 336.72 265.33C336.64 265.13 336.88 264.81 337.43 264.57C338.146 264.288 338.933 264.235 339.68 264.42C340.434 264.579 341.117 264.975 341.63 265.55C342 266 342.09 266.39 341.93 266.54Z" fill="#263238"/>
<path d="M308.81 270.41C308.65 270.3 302.28 266.97 301.12 273.92C299.96 280.87 307.18 280.6 307.22 280.4C307.26 280.2 308.81 270.41 308.81 270.41Z" fill="#FFBE9D"/>
<path d="M305.54 277.41C305.54 277.41 305.41 277.48 305.19 277.54C304.881 277.614 304.556 277.567 304.28 277.41C303.875 277.053 303.574 276.593 303.408 276.079C303.243 275.565 303.219 275.016 303.34 274.49C303.42 273.89 303.635 273.315 303.97 272.81C304.065 272.603 304.207 272.421 304.387 272.28C304.566 272.139 304.776 272.043 305 272C305.146 271.988 305.292 272.027 305.413 272.111C305.533 272.195 305.621 272.318 305.66 272.46C305.72 272.66 305.66 272.8 305.66 272.81C305.66 272.82 305.83 272.72 305.82 272.43C305.809 272.252 305.739 272.083 305.62 271.95C305.539 271.86 305.44 271.788 305.33 271.738C305.22 271.688 305.101 271.662 304.98 271.66C304.686 271.669 304.4 271.752 304.148 271.903C303.896 272.053 303.687 272.266 303.54 272.52C303.143 273.074 302.885 273.715 302.79 274.39C302.6 275.8 303.1 277.23 304.06 277.68C304.238 277.766 304.432 277.811 304.63 277.811C304.827 277.811 305.022 277.766 305.2 277.68C305.5 277.58 305.56 277.43 305.54 277.41Z" fill="#EB996E"/>
<path d="M347.32 265C344.97 265.127 342.624 264.694 340.473 263.738C338.323 262.782 336.43 261.33 334.95 259.5C332.95 256.92 331.62 253.55 328.73 251.99C327.735 251.5 326.652 251.213 325.545 251.144C324.438 251.075 323.328 251.227 322.28 251.59C320.193 252.336 318.281 253.5 316.66 255.01C317.58 260.53 315.13 266.01 312.74 271.01C312.534 271.6 312.136 272.103 311.61 272.44C310.67 272.91 309.55 272.17 308.98 271.28C308.181 269.788 307.834 268.096 307.98 266.41C308.001 262.568 308.783 258.768 310.28 255.23C311.8 251.681 314.328 248.656 317.55 246.53C321.683 244.006 326.634 243.185 331.36 244.24C336.059 245.333 340.296 247.876 343.47 251.51C345.017 253.12 346.14 255.089 346.74 257.24" fill="#263238"/>
<path d="M67.4601 427.85C67.5039 427.704 67.5643 427.563 67.6402 427.43L68.2001 426.22C68.8897 424.656 69.4483 423.037 69.8702 421.38C70.9702 417.08 71.3502 410.51 69.7202 402.71C68.8432 398.455 67.6874 394.263 66.2602 390.16C64.7902 385.71 63.0902 380.99 61.7002 375.88C60.1308 370.551 59.3723 365.015 59.4502 359.46C59.6602 353.65 61.3802 347.85 63.2702 342.08C65.1602 336.31 67.1102 330.65 67.6902 324.97C68.3456 319.505 67.2497 313.973 64.5601 309.17C62.0501 304.55 58.9102 300.61 56.5602 296.52C54.3575 292.733 52.7329 288.637 51.7402 284.37C50.3236 278.183 50.2214 271.769 51.4401 265.54C51.8884 263.263 52.5583 261.036 53.4401 258.89C53.4167 259.043 53.3799 259.193 53.3302 259.34L52.9302 260.61C50.5773 268.29 50.3252 276.46 52.2002 284.27C53.2022 288.489 54.8303 292.533 57.0301 296.27C59.3801 300.27 62.5401 304.27 65.0901 308.9C67.8214 313.797 68.9377 319.431 68.2801 325C67.6901 330.78 65.7202 336.47 63.8402 342.24C61.9602 348.01 60.2502 353.74 60.0402 359.45C59.9531 364.949 60.6913 370.43 62.2302 375.71C63.6002 380.79 65.2902 385.51 66.7302 389.98C68.1454 394.106 69.2845 398.322 70.1402 402.6C71.7302 410.46 71.2701 417.1 70.1402 421.41C69.6994 423.072 69.1034 424.689 68.3602 426.24C68.1002 426.74 67.8901 427.13 67.7401 427.43C67.6606 427.579 67.5668 427.719 67.4601 427.85Z" fill="#263238"/>
<path d="M59.75 300.55C59.75 300.55 54.96 285.25 63.55 276.29C63.6166 276.218 63.7018 276.166 63.7963 276.139C63.8907 276.113 63.9907 276.113 64.085 276.14C64.1794 276.167 64.2644 276.219 64.3306 276.292C64.3968 276.364 64.4416 276.454 64.46 276.55C64.92 279.08 65.49 286.78 59.75 300.55Z" fill="#B8BABB"/>
<path d="M62.6199 281.39C62.6038 282.339 62.4933 283.283 62.2899 284.21C61.9799 286.21 61.6099 288.44 61.1999 290.96C60.7899 293.48 60.4399 295.77 60.1299 297.71C60.049 298.657 59.8782 299.595 59.6199 300.51C59.539 299.56 59.5692 298.603 59.7099 297.66C59.8699 295.91 60.1799 293.51 60.6099 290.87C61.0399 288.23 61.4999 285.87 61.8799 284.14C62.0201 283.198 62.2684 282.275 62.6199 281.39Z" fill="#263238"/>
<path d="M65.3701 336.65C65.3701 336.65 68.3001 320.88 80.0801 317C80.173 316.968 80.273 316.962 80.369 316.983C80.465 317.004 80.5533 317.052 80.6238 317.12C80.6944 317.189 80.7445 317.275 80.7686 317.371C80.7927 317.466 80.7897 317.566 80.7601 317.66C80.0001 320.08 76.8901 327.16 65.3701 336.65Z" fill="#B8BABB"/>
<path d="M76.8698 321.05C76.4124 321.882 75.873 322.666 75.2598 323.39C74.0798 324.97 72.6797 326.81 71.1397 328.85L66.9997 334.32C66.4829 335.116 65.8937 335.862 65.2397 336.55C65.6116 335.671 66.0848 334.839 66.6497 334.07C67.6497 332.6 68.9997 330.62 70.6497 328.49C72.2997 326.36 73.7897 324.49 74.9197 323.13C75.4873 322.364 76.1417 321.666 76.8698 321.05Z" fill="#263238"/>
<path d="M62.19 376.2C62.19 376.2 60.41 360.26 70.55 353.1C70.6299 353.042 70.7242 353.008 70.8224 353.001C70.9206 352.994 71.0188 353.015 71.106 353.06C71.1933 353.106 71.266 353.175 71.3162 353.26C71.3663 353.344 71.3919 353.442 71.39 353.54C71.36 356.1 70.45 363.77 62.19 376.2Z" fill="#B8BABB"/>
<path d="M68.6599 357.93C68.4697 358.861 68.1814 359.77 67.7999 360.64C67.1199 362.49 66.3299 364.64 65.4399 367.06L63.1099 373.48C62.862 374.393 62.5271 375.281 62.1099 376.13C62.2157 375.183 62.427 374.25 62.7399 373.35C63.2299 371.66 63.9899 369.35 64.9199 366.85C65.8499 364.35 66.7599 362.1 67.4499 360.49C67.755 359.594 68.1609 358.735 68.6599 357.93Z" fill="#263238"/>
<path d="M71.0598 416C71.0598 416 69.8498 400 80.2398 393.22C80.321 393.164 80.4162 393.132 80.5147 393.127C80.6131 393.122 80.711 393.145 80.7972 393.193C80.8835 393.241 80.9546 393.312 81.0028 393.398C81.0509 393.484 81.0741 393.582 81.0698 393.68C80.9398 396.23 79.7598 403.86 71.0598 416Z" fill="#B8BABB"/>
<path d="M78.18 398C77.9401 398.925 77.6049 399.824 77.18 400.68C76.43 402.5 75.56 404.68 74.59 407L72.02 413.34C71.758 414.222 71.4166 415.079 71 415.9C71.1344 414.958 71.3795 414.035 71.73 413.15C72.27 411.48 73.12 409.21 74.14 406.74C75.16 404.27 76.14 402.05 76.89 400.47C77.228 399.602 77.6606 398.773 78.18 398Z" fill="#263238"/>
<path d="M52.8699 287.11C52.8699 287.11 38.6599 279.69 38.3799 267.28C38.3756 267.182 38.3988 267.084 38.4469 266.998C38.4951 266.912 38.5662 266.841 38.6525 266.793C38.7387 266.745 38.8366 266.722 38.935 266.727C39.0335 266.732 39.1287 266.764 39.2099 266.82C41.3199 268.28 47.1699 273.31 52.8699 287.11Z" fill="#B8BABB"/>
<path d="M41.3301 271.54C41.9943 272.218 42.5874 272.962 43.1001 273.76L47.1001 279.3L51.1001 284.83C51.7094 285.556 52.2517 286.336 52.7201 287.16C51.9681 286.558 51.296 285.862 50.7201 285.09C49.5901 283.75 48.1001 281.83 46.5401 279.66C44.9801 277.49 43.6201 275.48 42.6701 274C42.131 273.234 41.6814 272.408 41.3301 271.54Z" fill="#263238"/>
<path d="M68.1299 320C68.1299 320 53.4999 313.46 52.4599 301.09C52.4516 300.993 52.4703 300.895 52.5139 300.808C52.5575 300.721 52.6244 300.647 52.7071 300.595C52.7898 300.544 52.8852 300.516 52.9827 300.515C53.0803 300.514 53.1762 300.54 53.2599 300.59C55.4599 301.88 61.6099 306.55 68.1299 320Z" fill="#B8BABB"/>
<path d="M55.6699 305.14C56.3721 305.778 57.0086 306.485 57.5699 307.25L61.9099 312.54L66.2599 317.81C66.9091 318.482 67.4919 319.216 67.9999 320C67.2374 319.413 66.543 318.742 65.9299 318C64.7199 316.72 63.1199 314.9 61.4299 312.83C59.7399 310.76 58.2599 308.83 57.2299 307.42C56.6254 306.721 56.1021 305.957 55.6699 305.14Z" fill="#263238"/>
<path d="M59.7097 356.64C59.7097 356.64 49.6597 344.14 54.3797 332.64C54.4156 332.549 54.4759 332.47 54.554 332.411C54.6321 332.352 54.7249 332.316 54.8221 332.307C54.9194 332.298 55.0174 332.316 55.1052 332.358C55.193 332.401 55.2672 332.468 55.3197 332.55C56.6697 334.76 59.9997 341.71 59.7097 356.64Z" fill="#B8BABB"/>
<path d="M55.3699 337.75C55.7063 338.636 55.9509 339.554 56.0999 340.49C56.5199 342.42 57.0099 344.68 57.5599 347.18C58.1099 349.68 58.5599 351.93 59.0299 353.85C59.2974 354.761 59.4815 355.695 59.5799 356.64C59.1359 355.792 58.7999 354.892 58.5799 353.96C58.0799 352.27 57.4899 349.96 56.9299 347.3C56.3699 344.64 55.9299 342.3 55.6499 340.58C55.4534 339.65 55.3595 338.701 55.3699 337.75Z" fill="#263238"/>
<path d="M69.67 399.78C69.67 399.78 55.14 393 54.32 380.6C54.3137 380.504 54.3338 380.407 54.3782 380.322C54.4227 380.236 54.4897 380.164 54.572 380.113C54.6544 380.063 54.7489 380.036 54.8455 380.035C54.9421 380.035 55.037 380.061 55.12 380.11C57.3 381.48 63.37 386.25 69.67 399.78Z" fill="#B8BABB"/>
<path d="M57.4497 384.73C58.144 385.378 58.7706 386.095 59.3197 386.87C60.5397 388.42 61.9797 390.23 63.5697 392.23L67.8297 397.58C68.4702 398.28 69.0459 399.036 69.5497 399.84C68.8057 399.255 68.1343 398.584 67.5497 397.84C66.3697 396.55 64.7997 394.7 63.1497 392.6C61.4997 390.5 59.9997 388.56 58.9997 387.13C58.3986 386.388 57.879 385.583 57.4497 384.73Z" fill="#263238"/>
<path d="M98.5999 336.73C98.6138 336.85 98.6138 336.97 98.5999 337.09C98.5999 337.37 98.5999 337.7 98.5999 338.09C98.5999 339.09 98.4999 340.36 98.4299 341.98C98.2399 345.4 97.9799 350.16 97.6699 355.87C96.6699 361.67 93.6699 368.1 89.6699 374.34C86.7599 378.94 83.6699 383.13 81.0799 387.02C78.6854 390.416 76.5302 393.975 74.6299 397.67C73.3874 400.177 72.383 402.795 71.6299 405.49C71.3699 406.44 71.1799 407.19 71.0699 407.7C71.0257 407.963 70.9554 408.221 70.8599 408.47C70.8631 408.204 70.8932 407.94 70.9499 407.68C71.0199 407.16 71.1799 406.4 71.3999 405.43C72.0785 402.673 73.0368 399.992 74.2599 397.43C76.1185 393.69 78.2475 390.09 80.6299 386.66C83.2399 382.74 86.2799 378.55 89.1799 373.98C93.1799 367.76 96.0599 361.43 97.1799 355.72C97.5799 350.03 97.9099 345.27 98.1799 341.85C98.3099 340.23 98.4199 338.93 98.4899 337.97C98.4899 337.57 98.5699 337.23 98.5999 336.97C98.5913 336.89 98.5913 336.81 98.5999 336.73Z" fill="#263238"/>
<path d="M89.9999 373.2C89.9999 373.2 96.1499 358.39 88.4099 348.69C88.3499 348.612 88.2694 348.553 88.1775 348.518C88.0856 348.483 87.9858 348.474 87.8893 348.493C87.7929 348.512 87.7035 348.557 87.6312 348.624C87.5589 348.69 87.5065 348.775 87.4799 348.87C86.7499 351.35 85.4799 359 89.9999 373.2Z" fill="#B8BABB"/>
<path d="M88.8299 353.86C89.0951 354.773 89.2594 355.712 89.3199 356.66C89.5399 358.4 89.7799 360.81 89.9699 363.48C90.1599 366.15 90.2499 368.57 90.2499 370.32C90.3115 371.27 90.2544 372.224 90.0799 373.16C89.9061 372.23 89.8224 371.286 89.8299 370.34C89.6999 368.34 89.5399 366.07 89.3699 363.52C89.1999 360.97 89.0299 358.66 88.8999 356.7C88.7833 355.758 88.7599 354.807 88.8299 353.86Z" fill="#263238"/>
<g opacity="0.3">
<path d="M89.9999 373.2C89.9999 373.2 96.1499 358.39 88.4099 348.69C88.3499 348.612 88.2694 348.553 88.1775 348.518C88.0856 348.483 87.9858 348.474 87.8893 348.493C87.7929 348.512 87.7035 348.557 87.6312 348.624C87.5589 348.69 87.5065 348.775 87.4799 348.87C86.7499 351.35 85.4799 359 89.9999 373.2Z" fill="black"/>
</g>
<path d="M70.9 408.88C70.9 408.88 75.83 393.63 67.33 384.59C67.2642 384.518 67.1797 384.466 67.0859 384.438C66.9921 384.411 66.8927 384.411 66.7986 384.437C66.7045 384.463 66.6193 384.514 66.5525 384.585C66.4857 384.656 66.4399 384.744 66.42 384.84C65.93 387.36 65.29 395.05 70.9 408.88Z" fill="#B8BABB"/>
<path d="M68.21 389.69C68.5498 390.58 68.7879 391.506 68.92 392.45C69.28 394.16 69.72 396.54 70.13 399.19C70.54 401.84 70.82 404.24 70.96 405.99C71.0958 406.934 71.116 407.891 71.02 408.84C70.7764 407.923 70.6158 406.986 70.54 406.04C70.25 404.04 69.91 401.81 69.54 399.28C69.17 396.75 68.81 394.47 68.54 392.52C68.3372 391.59 68.2267 390.642 68.21 389.69Z" fill="#263238"/>
<g opacity="0.3">
<path d="M70.9 408.88C70.9 408.88 75.83 393.63 67.33 384.59C67.2642 384.518 67.1797 384.466 67.0859 384.438C66.9921 384.411 66.8927 384.411 66.7986 384.437C66.7045 384.463 66.6193 384.514 66.5525 384.585C66.4857 384.656 66.4399 384.744 66.42 384.84C65.93 387.36 65.29 395.05 70.9 408.88Z" fill="black"/>
</g>
<path d="M97.7798 355.11C97.7798 355.11 110.92 345.91 109.59 333.57C109.581 333.472 109.546 333.379 109.487 333.3C109.428 333.221 109.349 333.16 109.258 333.124C109.166 333.087 109.067 333.077 108.97 333.094C108.873 333.111 108.783 333.155 108.71 333.22C106.81 335 101.65 340.69 97.7798 355.11Z" fill="#B8BABB"/>
<g opacity="0.3">
<path d="M97.7798 355.11C97.7798 355.11 110.92 345.91 109.59 333.57C109.581 333.472 109.546 333.379 109.487 333.3C109.428 333.221 109.349 333.16 109.258 333.124C109.166 333.087 109.067 333.077 108.97 333.094C108.873 333.111 108.783 333.155 108.71 333.22C106.81 335 101.65 340.69 97.7798 355.11Z" fill="black"/>
</g>
<path d="M107.22 338.18C106.955 339.091 106.589 339.97 106.13 340.8C105.38 342.39 104.29 344.55 103.02 346.91C101.75 349.27 100.53 351.36 99.5802 352.84C99.126 353.676 98.5646 354.449 97.9102 355.14C98.2709 354.263 98.7093 353.419 99.2202 352.62L102.49 346.62L105.75 340.62C106.155 339.758 106.647 338.94 107.22 338.18Z" fill="#263238"/>
<path d="M76.1899 393.76C76.1899 393.76 91.9999 391.29 96.2799 379.63C96.3153 379.538 96.3244 379.438 96.3061 379.341C96.2878 379.245 96.2429 379.155 96.1764 379.082C96.11 379.009 96.0246 378.957 95.9298 378.93C95.835 378.903 95.7347 378.903 95.6399 378.93C93.1699 379.63 85.9999 382.52 76.1899 393.76Z" fill="#B8BABB"/>
<g opacity="0.3">
<path d="M76.1899 393.76C76.1899 393.76 91.9999 391.29 96.2799 379.63C96.3153 379.538 96.3244 379.438 96.3061 379.341C96.2878 379.245 96.2429 379.155 96.1764 379.082C96.11 379.009 96.0246 378.957 95.9298 378.93C95.835 378.903 95.7347 378.903 95.6399 378.93C93.1699 379.63 85.9999 382.52 76.1899 393.76Z" fill="black"/>
</g>
<path d="M92.1201 382.72C91.4813 383.416 90.7707 384.043 90.0001 384.59C88.6301 385.69 86.7001 387.15 84.5201 388.7C82.3401 390.25 80.3201 391.6 78.8301 392.52C78.0467 393.063 77.2006 393.51 76.3101 393.85C77.0172 393.219 77.7804 392.653 78.5901 392.16L84.1801 388.22L89.7501 384.22C90.4859 383.639 91.2802 383.136 92.1201 382.72Z" fill="#263238"/>
<path d="M61.08 422.92L56.46 454.02H85.26L81.52 422.92H61.08Z" fill="#455A64"/>
<path d="M82.6797 432.55C82.6797 432.72 77.4797 432.85 71.0597 432.85C64.6397 432.85 59.4497 432.72 59.4497 432.55C63.3121 432.254 67.1871 432.154 71.0597 432.25C74.9356 432.154 78.8139 432.254 82.6797 432.55Z" fill="#263238"/>
<path d="M83.25 435C83.25 435.16 77.88 435.3 71.25 435.3C64.62 435.3 59.25 435.16 59.25 435C59.25 434.84 64.62 434.7 71.25 434.7C77.88 434.7 83.25 434.86 83.25 435Z" fill="#263238"/>
</svg>
