<svg width="24" height="24" viewBox="0 0 24 24" fill="none" xmlns="http://www.w3.org/2000/svg">
<path d="M22 22.0005H2M14 9.00047H10M14 15.0005H10M6.501 8.00047H6.492M6.502 12.0005H6.492M6.502 16.0005H6.492M17.501 8.00047H17.492M17.502 12.0005H17.492M17.502 16.0005H17.492M21 7.48547C21 6.38747 21 5.83947 20.724 5.37547C20.448 4.91147 19.939 4.60947 18.922 4.00047L17.628 3.22647C16.031 2.27047 15.232 1.79247 14.616 2.08847C14 2.38447 14 3.24547 14 4.96747V22.0005H21V7.48547ZM3 7.48547C3 6.38747 3 5.83947 3.276 5.37547C3.552 4.91147 4.061 4.60947 5.078 4.00047L6.372 3.22647C7.97 2.26947 8.768 1.79047 9.384 2.08747C10 2.38447 10 3.24547 10 4.96747V22.0005H3V7.48547Z" stroke="currentColor" stroke-width="1.5" stroke-linecap="round" stroke-linejoin="round"/>
</svg>
