<svg width="24" height="24" viewBox="0 0 24 24" fill="none" xmlns="http://www.w3.org/2000/svg">
<path d="M8 2V5" stroke="currentColor" stroke-width="1.5" stroke-miterlimit="10" stroke-linecap="round" stroke-linejoin="round"/>
<path d="M16 2V5" stroke="currentColor" stroke-width="1.5" stroke-miterlimit="10" stroke-linecap="round" stroke-linejoin="round"/>
<path d="M3.5 9.08997H20.5" stroke="currentColor" stroke-width="1.5" stroke-miterlimit="10" stroke-linecap="round" stroke-linejoin="round"/>
<path d="M21 8.5V17C21 20 19.5 22 16 22H8C4.5 22 3 20 3 17V8.5C3 5.5 4.5 3.5 8 3.5H16C19.5 3.5 21 5.5 21 8.5Z" stroke="currentColor" stroke-width="1.5" stroke-miterlimit="10" stroke-linecap="round" stroke-linejoin="round"/>
<path d="M6.12836 17C6.03503 17 5.95836 16.9717 5.89836 16.915C5.83836 16.855 5.80836 16.7817 5.80836 16.695V13.795H6.45836V16.695C6.45836 16.7817 6.42669 16.855 6.36336 16.915C6.30336 16.9717 6.22503 17 6.12836 17ZM5.02336 14.075C4.93669 14.075 4.86336 14.0483 4.80336 13.995C4.74669 13.9417 4.71836 13.8717 4.71836 13.785C4.71836 13.6983 4.74669 13.63 4.80336 13.58C4.86336 13.5267 4.93669 13.5 5.02336 13.5H7.24336C7.33003 13.5 7.40169 13.5267 7.45836 13.58C7.51836 13.6333 7.54836 13.7033 7.54836 13.79C7.54836 13.8767 7.51836 13.9467 7.45836 14C7.40169 14.05 7.33003 14.075 7.24336 14.075H5.02336ZM10.0177 15.665C10.0177 15.9383 9.95599 16.18 9.83266 16.39C9.71266 16.5967 9.54932 16.7583 9.34266 16.875C9.13932 16.9917 8.91099 17.05 8.65766 17.05C8.40432 17.05 8.17432 16.9917 7.96766 16.875C7.76432 16.7583 7.60099 16.5967 7.47766 16.39C7.35766 16.18 7.29766 15.9383 7.29766 15.665C7.29766 15.3917 7.35766 15.1517 7.47766 14.945C7.60099 14.735 7.76432 14.5717 7.96766 14.455C8.17432 14.335 8.40432 14.275 8.65766 14.275C8.91099 14.275 9.13932 14.335 9.34266 14.455C9.54932 14.5717 9.71266 14.735 9.83266 14.945C9.95599 15.1517 10.0177 15.3917 10.0177 15.665ZM9.41766 15.665C9.41766 15.495 9.38266 15.3483 9.31266 15.225C9.24599 15.0983 9.15432 15 9.03766 14.93C8.92432 14.86 8.79766 14.825 8.65766 14.825C8.51766 14.825 8.38932 14.86 8.27266 14.93C8.15932 15 8.06766 15.0983 7.99766 15.225C7.93099 15.3483 7.89766 15.495 7.89766 15.665C7.89766 15.8317 7.93099 15.9783 7.99766 16.105C8.06766 16.2283 8.15932 16.325 8.27266 16.395C8.38932 16.465 8.51766 16.5 8.65766 16.5C8.79766 16.5 8.92432 16.465 9.03766 16.395C9.15432 16.325 9.24599 16.2283 9.31266 16.105C9.38266 15.9783 9.41766 15.8317 9.41766 15.665ZM12.7328 13.3C12.8194 13.3 12.8911 13.3283 12.9478 13.385C13.0044 13.4417 13.0328 13.515 13.0328 13.605V16.695C13.0328 16.7817 13.0044 16.855 12.9478 16.915C12.8911 16.9717 12.8194 17 12.7328 17C12.6461 17 12.5744 16.9717 12.5178 16.915C12.4611 16.855 12.4328 16.7817 12.4328 16.695V16.45L12.5428 16.495C12.5428 16.5383 12.5194 16.5917 12.4728 16.655C12.4261 16.715 12.3628 16.775 12.2828 16.835C12.2028 16.895 12.1078 16.9467 11.9978 16.99C11.8911 17.03 11.7744 17.05 11.6478 17.05C11.4178 17.05 11.2094 16.9917 11.0228 16.875C10.8361 16.755 10.6878 16.5917 10.5778 16.385C10.4711 16.175 10.4178 15.935 10.4178 15.665C10.4178 15.3917 10.4711 15.1517 10.5778 14.945C10.6878 14.735 10.8344 14.5717 11.0178 14.455C11.2011 14.335 11.4044 14.275 11.6278 14.275C11.7711 14.275 11.9028 14.2967 12.0228 14.34C12.1428 14.3833 12.2461 14.4383 12.3328 14.505C12.4228 14.5717 12.4911 14.64 12.5378 14.71C12.5878 14.7767 12.6128 14.8333 12.6128 14.88L12.4328 14.945V13.605C12.4328 13.5183 12.4611 13.4467 12.5178 13.39C12.5744 13.33 12.6461 13.3 12.7328 13.3ZM11.7228 16.5C11.8694 16.5 11.9978 16.4633 12.1078 16.39C12.2178 16.3167 12.3028 16.2167 12.3628 16.09C12.4261 15.9633 12.4578 15.8217 12.4578 15.665C12.4578 15.505 12.4261 15.3617 12.3628 15.235C12.3028 15.1083 12.2178 15.0083 12.1078 14.935C11.9978 14.8617 11.8694 14.825 11.7228 14.825C11.5794 14.825 11.4528 14.8617 11.3428 14.935C11.2328 15.0083 11.1461 15.1083 11.0828 15.235C11.0228 15.3617 10.9928 15.505 10.9928 15.665C10.9928 15.8217 11.0228 15.9633 11.0828 16.09C11.1461 16.2167 11.2328 16.3167 11.3428 16.39C11.4528 16.4633 11.5794 16.5 11.7228 16.5ZM15.8724 14.275C15.9591 14.275 16.0308 14.3033 16.0874 14.36C16.1441 14.4167 16.1724 14.49 16.1724 14.58V16.695C16.1724 16.7817 16.1441 16.855 16.0874 16.915C16.0308 16.9717 15.9591 17 15.8724 17C15.7858 17 15.7141 16.9717 15.6574 16.915C15.6008 16.855 15.5724 16.7817 15.5724 16.695V16.45L15.6824 16.495C15.6824 16.5383 15.6591 16.5917 15.6124 16.655C15.5658 16.715 15.5024 16.775 15.4224 16.835C15.3424 16.895 15.2474 16.9467 15.1374 16.99C15.0308 17.03 14.9141 17.05 14.7874 17.05C14.5574 17.05 14.3491 16.9917 14.1624 16.875C13.9758 16.755 13.8274 16.5917 13.7174 16.385C13.6108 16.175 13.5574 15.935 13.5574 15.665C13.5574 15.3917 13.6108 15.1517 13.7174 14.945C13.8274 14.735 13.9741 14.5717 14.1574 14.455C14.3408 14.335 14.5441 14.275 14.7674 14.275C14.9108 14.275 15.0424 14.2967 15.1624 14.34C15.2824 14.3833 15.3858 14.4383 15.4724 14.505C15.5624 14.5717 15.6308 14.64 15.6774 14.71C15.7274 14.7767 15.7524 14.8333 15.7524 14.88L15.5724 14.945V14.58C15.5724 14.4933 15.6008 14.4217 15.6574 14.365C15.7141 14.305 15.7858 14.275 15.8724 14.275ZM14.8624 16.5C15.0091 16.5 15.1374 16.4633 15.2474 16.39C15.3574 16.3167 15.4424 16.2167 15.5024 16.09C15.5658 15.9633 15.5974 15.8217 15.5974 15.665C15.5974 15.505 15.5658 15.3617 15.5024 15.235C15.4424 15.1083 15.3574 15.0083 15.2474 14.935C15.1374 14.8617 15.0091 14.825 14.8624 14.825C14.7191 14.825 14.5924 14.8617 14.4824 14.935C14.3724 15.0083 14.2858 15.1083 14.2224 15.235C14.1624 15.3617 14.1324 15.505 14.1324 15.665C14.1324 15.8217 14.1624 15.9633 14.2224 16.09C14.2858 16.2167 14.3724 16.3167 14.4824 16.39C14.5924 16.4633 14.7191 16.5 14.8624 16.5ZM18.8071 14.325C18.8937 14.325 18.9654 14.355 19.0221 14.415C19.0787 14.4717 19.1071 14.5433 19.1071 14.63V16.755C19.1071 17.0617 19.0487 17.305 18.9321 17.485C18.8187 17.6683 18.6654 17.8 18.4721 17.88C18.2787 17.96 18.0621 18 17.8221 18C17.7154 18 17.6021 17.9917 17.4821 17.975C17.3621 17.9583 17.2637 17.9333 17.1871 17.9C17.0871 17.8567 17.0171 17.8017 16.9771 17.735C16.9404 17.6717 16.9337 17.6033 16.9571 17.53C16.9871 17.4333 17.0354 17.3667 17.1021 17.33C17.1687 17.2967 17.2387 17.2933 17.3121 17.32C17.3654 17.3367 17.4354 17.3617 17.5221 17.395C17.6087 17.4317 17.7087 17.45 17.8221 17.45C17.9754 17.45 18.1021 17.4283 18.2021 17.385C18.3054 17.345 18.3821 17.275 18.4321 17.175C18.4854 17.0783 18.5121 16.945 18.5121 16.775V16.44L18.6171 16.56C18.5604 16.67 18.4887 16.7617 18.4021 16.835C18.3187 16.905 18.2187 16.9583 18.1021 16.995C17.9854 17.0317 17.8521 17.05 17.7021 17.05C17.5254 17.05 17.3704 17.01 17.2371 16.93C17.1071 16.8467 17.0054 16.7333 16.9321 16.59C16.8587 16.4433 16.8221 16.2767 16.8221 16.09V14.63C16.8221 14.5433 16.8504 14.4717 16.9071 14.415C16.9637 14.355 17.0354 14.325 17.1221 14.325C17.2087 14.325 17.2804 14.355 17.3371 14.415C17.3937 14.4717 17.4221 14.5433 17.4221 14.63V15.91C17.4221 16.1267 17.4687 16.28 17.5621 16.37C17.6587 16.4567 17.7921 16.5 17.9621 16.5C18.0787 16.5 18.1771 16.4783 18.2571 16.435C18.3371 16.3883 18.3987 16.3217 18.4421 16.235C18.4854 16.145 18.5071 16.0367 18.5071 15.91V14.63C18.5071 14.5433 18.5354 14.4717 18.5921 14.415C18.6487 14.355 18.7204 14.325 18.8071 14.325Z" fill="currentColor"/>
</svg>
